<svg width="98" height="24" viewBox="0 0 98 24" fill="none"
												xmlns="http://www.w3.org/2000/svg">
												<path fill-rule="evenodd" clip-rule="evenodd"
													d="M7.37814 22.504L7.30214 22.474C7.1946 22.4343 7.08791 22.3923 6.98214 22.348C6.14914 21.994 5.48614 21.544 4.99514 20.995C4.50014 20.443 4.20514 19.711 4.10914 18.8C4.01314 17.89 4.11914 16.762 4.42514 15.419C4.73114 14.076 5.25314 12.442 5.99114 10.518C6.50089 9.17464 7.06876 7.85406 7.69314 6.56C8.26714 5.383 8.88914 4.42 9.56114 3.672C10.2311 2.924 10.9771 2.438 11.7971 2.214C12.6021 1.994 13.5211 2.098 14.5521 2.524C14.7861 2.624 15.0051 2.729 15.2141 2.839C16.0151 3.272 16.5961 3.809 16.9481 4.451C17.3841 5.248 17.5881 6.161 17.5591 7.191C17.5301 8.223 17.3241 9.339 16.9411 10.542C16.5377 11.8039 16.0975 13.0538 15.6211 14.29C15.1111 15.6275 14.5565 16.9476 13.9581 18.248C13.4031 19.443 12.7961 20.423 12.1361 21.187C11.4761 21.951 10.7331 22.454 9.90614 22.697C9.21414 22.9 8.42114 22.85 7.52814 22.554C7.47814 22.537 7.42814 22.522 7.37814 22.504ZM21.3781 11.931C21.2901 10.421 20.9541 9.027 20.3681 7.749C19.7895 6.47938 18.9797 5.32847 17.9801 4.355C17.0451 3.43366 15.9516 2.68841 14.7521 2.155L14.7041 2.136L14.6441 2.109C13.5141 1.632 12.2641 1.39 10.8941 1.381C9.52414 1.373 8.18814 1.621 6.88814 2.126C5.58714 2.63 4.38714 3.392 3.28814 4.412C2.19014 5.432 1.33914 6.728 0.73514 8.301C0.18114 9.744 -0.0598602 11.201 0.0111398 12.671C0.0821398 14.141 0.39714 15.526 0.95414 16.825C1.51122 18.1245 2.30198 19.3108 3.28714 20.325C4.26443 21.3447 5.44027 22.1533 6.74214 22.701L6.82614 22.734L6.85014 22.746C6.95214 22.789 7.05514 22.826 7.15814 22.865C7.18814 22.875 7.21814 22.888 7.24814 22.899L7.37514 22.942C8.48334 23.3299 9.65356 23.5103 10.8271 23.474C12.2271 23.431 13.5631 23.129 14.8351 22.569C16.1176 21.9999 17.2818 21.1949 18.2671 20.196C19.2877 19.1683 20.08 17.9368 20.5921 16.582C21.2021 14.991 21.4651 13.44 21.3781 11.931ZM23.4911 8.103C27.0761 6.291 27.7771 5.607 29.7721 2.072H30.1221L30.1101 8.104H33.2641L33.2771 8.608H30.1231V18.027C30.1231 18.443 30.1771 18.799 30.2301 19.037C30.3651 19.572 30.9311 19.958 31.5781 19.958C32.4141 19.958 32.8991 19.602 33.4121 18.651L33.8161 18.859C33.1691 20.344 32.7381 20.939 31.7941 21.444C31.1201 21.83 30.0691 22.097 29.2061 22.097C26.8341 22.097 25.4591 20.79 25.4591 18.621V8.608H23.4641L23.4911 8.103ZM34.5061 21.68C35.8431 21.65 36.2611 21.263 36.2611 20.072V10.569C36.2611 9.348 36.0111 8.931 35.1191 8.931C34.9791 8.931 34.8401 8.961 34.6171 9.021L34.5341 8.603L41.1931 6.905L41.1971 10.275C42.5071 8.487 43.7801 7.183 44.8671 7.183C46.0091 7.183 46.9291 8.166 46.9291 9.388C46.9291 10.549 46.0271 11.326 44.9791 11.473C44.3611 11.56 43.7081 11.467 43.2301 10.788C43.0351 10.55 42.8951 10.316 42.8391 10.257C42.7271 10.107 42.5691 9.759 42.3731 9.759C42.1819 9.75965 41.996 9.82208 41.8431 9.937C41.3431 10.325 41.1631 10.425 41.1631 12.242L41.1931 20.072C41.1931 21.263 41.6111 21.68 42.9761 21.71V22.097H34.5061V21.68ZM51.4731 0C52.9041 0 54.0531 1.16 54.0531 2.609C54.0531 4.059 52.9291 5.244 51.4991 5.244C50.0691 5.244 48.9191 4.058 48.9191 2.609C48.9191 1.159 50.0701 0 51.4731 0ZM47.6191 21.709C48.9711 21.679 49.3861 21.29 49.3861 20.065V10.5C49.3861 9.303 49.1361 8.885 48.2541 8.885C48.1161 8.885 48.0051 8.915 47.7571 8.975L47.6741 8.555L54.2441 6.852L54.1611 20.065C54.1611 21.29 54.5751 21.679 55.9011 21.709V22.097H47.6191V21.709ZM62.4821 6.905V17.595C62.4821 19.018 62.9871 19.868 63.9471 19.868C64.5771 19.868 65.0191 19.952 65.8691 19.051L65.8551 10.478C65.8551 9.258 65.5531 8.881 64.7031 8.881C64.5391 8.881 64.4291 8.91 64.1831 8.968L64.0991 8.56L70.6531 6.904L70.7081 18.407C70.7081 19.657 71.0091 20.092 71.8051 20.092C71.9421 20.092 72.1341 20.092 72.4081 20.034L72.4631 20.47L65.8541 22.096L65.8881 19.353C65.5451 19.923 65.0281 20.414 64.6991 20.705C63.6291 21.576 62.6191 21.951 61.4391 21.951C60.3691 21.951 59.3551 21.574 58.6421 20.935C57.8741 20.208 57.6271 19.482 57.6271 17.739V10.477C57.6271 9.287 57.3251 8.88 56.4751 8.88C56.3651 8.88 56.2281 8.909 55.9821 8.967L55.8991 8.56L62.4811 6.904L62.4821 6.905ZM73.3851 21.68C74.8371 21.65 74.9131 21.263 74.9131 20.072V10.57C74.9131 9.348 74.6061 8.93 73.7401 8.93C73.6001 8.93 73.4611 8.96 73.2381 9.02L73.1541 8.603L79.7991 6.905V9.96C80.4381 9.116 80.4971 8.816 81.4751 8.097C82.5291 7.482 83.3181 7.114 84.3231 7.114C85.2441 7.114 86.1381 7.412 86.8081 7.888C87.3381 8.246 87.6751 8.937 88.0381 9.92C88.7901 9.054 89.0701 8.514 89.6561 8.127C90.5221 7.441 91.5271 7.114 92.6161 7.114C93.7891 7.114 94.8791 7.531 95.6051 8.305C96.2471 8.991 96.4421 9.795 96.4421 11.701V20.071C96.4421 21.234 96.5461 21.651 97.9981 21.681V22.097H90.2231V21.68C91.4791 21.65 91.5271 21.234 91.5271 20.072L91.5561 11.821C91.5561 10.659 91.5461 10.416 91.2661 9.999C91.1596 9.79392 90.9986 9.62216 90.8009 9.50256C90.6031 9.38296 90.3762 9.32014 90.1451 9.321C89.4751 9.321 88.7981 9.491 88.1001 10.265L88.1201 20.072C88.1201 21.234 88.1131 21.651 89.3141 21.68V22.097H82.0131V21.68C83.2701 21.65 83.2621 21.234 83.2621 20.072L83.3181 11.612C83.3181 10.092 82.8851 9.228 81.8801 9.228C81.1821 9.228 80.6951 9.378 79.7741 10.332L79.7991 20.072C79.7991 20.608 79.7541 21.282 80.0891 21.462C80.3411 21.64 80.5171 21.68 81.1321 21.68V22.097H73.3841V21.68H73.3851Z"
													fill="currentColor" svg=""></path>
											</svg>