<svg width="99" height="14" viewBox="0 0 99 14" fill="none"
												xmlns="http://www.w3.org/2000/svg">
												<g clip-path="url(#clip0_1119_3249)">
													<path fill-rule="evenodd" clip-rule="evenodd"
														d="M0.995605 0.347168H9.09056C11.4413 0.347168 13.3473 2.25313 13.3473 4.60485C13.3473 6.95559 11.4413 8.86155 9.09056 8.86155H4.83386V12.6986H0.995605V8.86035H4.83386V4.18542H0.995605V0.347168Z"
														fill="#FFBE06"></path>
													<path fill-rule="evenodd" clip-rule="evenodd"
														d="M26.7437 1.93893C26.0677 1.36832 24.8055 1.08252 23.5014 1.08252H17.6343V10.9283H19.9099V8.14744H23.3765C24.7041 8.14744 25.9936 7.85481 26.6988 7.26859C27.404 6.68237 27.7561 5.61917 27.7561 4.60474C27.7561 3.59031 27.4186 2.51052 26.7427 1.93893H26.7437ZM25.0767 5.83083C24.745 6.12638 24.2827 6.27367 23.6896 6.27367H19.9099V2.96116H23.6896C24.3061 2.96116 24.7743 3.10358 25.0942 3.38937C25.4142 3.67517 25.5741 4.09167 25.5741 4.60376C25.5741 5.11585 25.4083 5.5343 25.0767 5.82985V5.83083ZM33.4367 2.65527C32.4652 2.65527 31.7658 3.12347 31.3386 4.05889H31.2138L31.0187 2.8328H29.259V10.9278H31.3923V6.87979C31.3923 5.48105 32.1443 4.45686 33.6503 4.45686H34.3263V2.78793C34.2785 2.76842 34.1722 2.74111 34.0064 2.70697C33.8405 2.67283 33.6503 2.65527 33.4377 2.65527H33.4367ZM39.624 2.56396C41.1641 2.56396 42.3171 2.91121 43.0818 3.60473C43.8465 4.29825 44.2289 5.37511 44.2289 6.83432C44.2289 8.29354 43.8465 9.3704 43.0818 10.0639C42.3171 10.7584 41.1651 11.1047 39.624 11.1047C38.0828 11.1047 36.9309 10.7574 36.1661 10.0639C35.4014 9.3704 35.019 8.29354 35.019 6.83432C35.019 5.37511 35.4014 4.29825 36.1661 3.60473C36.9309 2.91121 38.0838 2.56396 39.624 2.56396ZM41.4548 8.93927C41.8343 8.50911 42.0235 7.84388 42.0235 6.94357V6.72605C42.0235 5.82477 41.8343 5.15954 41.4548 4.73036C41.0754 4.3002 40.4765 4.08561 39.624 4.08561C38.7715 4.08561 38.1579 4.30118 37.7843 4.73036C37.4108 5.16051 37.2245 5.82575 37.2245 6.72605V6.94357C37.2245 7.84485 37.4108 8.51008 37.7843 8.93927C38.1569 9.36942 38.7832 9.58401 39.624 9.58401C40.4648 9.58401 41.0754 9.36845 41.4548 8.93927ZM50.8685 2.56543C50.2637 2.56543 49.7126 2.67273 49.2152 2.88732C48.7177 3.10191 48.3139 3.41404 48.0066 3.82371H47.9003L47.7228 2.74978H45.9631V13.1321H48.0437V9.88688H48.15C48.7187 10.634 49.7087 11.2027 51.0119 11.2027C52.1024 11.2027 52.9734 10.6545 53.625 9.94833C54.2766 9.24213 54.6033 8.19356 54.6033 6.80262C54.6033 5.41169 54.2776 4.30654 53.625 3.6101C52.9734 2.91463 52.0546 2.56641 50.8695 2.56641L50.8685 2.56543ZM52.397 6.89334C52.397 7.77316 52.2311 8.41498 51.8995 8.81978C51.5679 9.2236 51.0109 9.42551 50.2286 9.42551C49.4932 9.42551 48.9547 9.21092 48.6104 8.78076C48.2661 8.35061 48.0944 7.71659 48.0944 6.87773V6.69338C48.0944 5.85452 48.2661 5.21953 48.6104 4.79035C48.9538 4.36019 49.4932 4.1456 50.2286 4.1456C51.0109 4.1456 51.5679 4.34751 51.8995 4.75133C52.2311 5.15515 52.397 5.80283 52.397 6.6924V6.89236V6.89334ZM60.4069 4.07C59.646 4.07 59.0881 4.29045 58.7321 4.73036L58.734 4.73133C58.378 5.17124 58.1029 5.84623 58.1029 6.75727V6.94357C58.1029 7.85461 58.3809 8.52471 58.7428 8.9539C59.1037 9.38405 59.6899 9.59864 60.4995 9.59864C61.1248 9.59864 61.6008 9.44843 61.9256 9.148C62.2504 8.84855 62.5108 8.4184 62.5108 7.85948H64.5475C64.5475 8.88367 64.1895 9.68156 63.4716 10.2502C62.7537 10.8199 61.7451 11.1047 60.4449 11.1047C58.9233 11.1047 57.7957 10.7574 57.0592 10.0639C56.3228 9.3704 55.9551 8.29354 55.9551 6.83432C55.9551 5.37511 56.3257 4.29825 57.068 3.60473C57.8093 2.91121 58.935 2.56396 60.4439 2.56396C61.7559 2.56396 62.7683 2.83903 63.4794 3.38721C64.1905 3.9354 64.5465 4.74304 64.5465 5.80917H62.3996C62.3996 5.22977 62.148 4.79474 61.8417 4.50504C61.5354 4.21534 61.0565 4.07 60.4069 4.07ZM73.6572 3.20847C73.148 2.751 72.3833 2.56568 71.4352 2.56568C70.8187 2.56568 70.2735 2.66127 69.7994 2.85342C69.3254 3.04558 68.783 3.49622 68.4748 3.82103H68.35V1.11719H66.3679V11.0186H68.388V6.19519C68.388 5.64408 68.7031 5.19051 69.1059 4.83644C69.5088 4.48236 70.0062 4.30484 70.5993 4.30484C71.1923 4.30484 71.5981 4.41799 71.8878 4.64428C72.1785 4.87058 72.3238 5.25001 72.3238 5.78161V11.0186H74.457V5.86062C74.457 4.91545 74.457 3.92638 73.6572 3.2075V3.20847ZM84.3886 9.03973C84.3886 9.22604 84.4501 9.36357 84.5739 9.45136L84.5749 9.45038C84.6978 9.53817 84.8529 9.58206 85.0382 9.58206H85.6313V10.855C85.2353 11.0101 84.7719 11.1632 84.2403 11.1632C83.7585 11.1632 83.3566 10.9886 83.0347 10.7926C82.7128 10.5955 82.6241 10.3263 82.5129 9.98491H82.3832C81.6535 10.7301 80.4879 11.1027 79.1399 11.1027C78.3488 11.1027 77.6348 10.9398 76.9979 10.614C76.361 10.2873 76.043 9.68448 76.043 8.80466C76.043 7.75999 76.5736 7.02453 77.6378 6.60022C78.701 6.17592 80.2099 5.96328 82.1637 5.96328V5.28049C82.1637 4.8874 82.0427 4.58209 81.8018 4.36458C81.5599 4.14706 81.1493 4.03879 80.4938 4.03879C79.8383 4.03879 79.375 4.12755 79.1028 4.30313L79.0916 4.3104C78.8209 4.48595 78.4717 4.71243 78.4717 4.96738V5.23074L76.5248 5.21904V4.83083C76.5248 4.12755 76.8857 3.57352 77.6095 3.1697C78.3332 2.76588 79.294 2.56396 80.4938 2.56396C81.7921 2.56396 82.7655 2.78733 83.4151 3.23212C84.0638 3.67691 84.3886 4.31386 84.3886 5.14198V9.03973ZM81.5316 9.08558C81.952 8.73443 82.3393 8.25843 82.3393 7.65757V7.6566V7.28399C81.1395 7.28399 80.0227 7.38055 79.3428 7.57174C78.6619 7.76292 78.1255 8.11211 78.1255 8.61933C78.1255 9.28163 78.817 9.61328 79.8061 9.61328C80.2997 9.61328 81.1112 9.4377 81.5316 9.08558ZM88.743 2.69629H86.7278V11.0185H88.743V2.69629ZM95.9765 2.56543C96.9246 2.56543 97.5674 2.78002 98.1009 3.20823H98.1019C98.6354 3.63643 98.9993 4.64989 98.9993 5.39998V11.0184H96.9577V5.71016C96.9577 5.17856 96.7207 4.79913 96.43 4.57283C96.1403 4.34653 95.7346 4.23339 95.1415 4.23339C94.5484 4.23339 94.051 4.41091 93.6481 4.76499C93.2453 5.11906 92.939 5.57263 92.939 6.12374V11.0184H90.9102V2.69614L92.5606 2.77027L92.7059 4.00221H92.8307C93.1741 3.61888 93.7389 3.09508 94.2431 2.88341C94.7465 2.67175 95.3249 2.56543 95.9765 2.56543Z"
														fill="white"></path>
												</g>
												<defs>
													<clipPath id="clip0_1119_3249">
														<rect width="98.0027" height="12.7838" fill="white"
															transform="translate(0.995605 0.347168)"></rect>
													</clipPath>
												</defs>
											</svg>