<svg width="39" height="24" viewBox="0 0 39 24" fill="none"
												xmlns="http://www.w3.org/2000/svg">
												<g clip-path="url(#clip0_1108_2628)">
													<path fill-rule="evenodd" clip-rule="evenodd"
														d="M25.76 18.9908V23.4539H21.9351L21.1411 22.658V18.9908H25.76ZM11.8684 14.4641V19.0301L6.06824 23.4539H1.02417L8.0711 14.4641H11.8684ZM11.9059 7.36865H18.8546V22.6146L18.0426 23.4539H14.2357V12.0912H8.0711L1.02417 0.503906H6.06824L11.9059 7.36865ZM25.76 0.503906V11.8666H31.9246L38.9715 23.4539H33.9275L28.0898 16.5892H21.1411V1.34328L21.9531 0.503906H25.76ZM22.3829 20.2545V22.1289L22.444 22.1902H24.5181V20.2545H22.3829ZM3.25313 1.76764L8.76296 10.8275H15.4775V22.1902H17.5225L17.6128 22.0969V8.63238H11.3383L5.50064 1.76764H3.25313ZM8.66904 15.7278L3.60333 22.1902H5.65454L10.6266 18.398V15.7278H8.66904ZM22.4732 1.76764L22.3829 1.86095V15.3255H28.6574L34.495 22.1902H36.7426L31.2327 13.1304H24.5181V1.76764H22.4732ZM31.9246 9.49379H28.1273V4.92774L33.9275 0.503906H38.9715L31.9246 9.49379ZM34.3411 1.76764L29.3691 5.55986V8.23005H31.3266L36.3924 1.76764H34.3411ZM18.8546 1.29989V4.96704H14.2357V0.503906H18.0606L18.8546 1.29989ZM15.4775 1.76764V3.70331H17.6128V1.82893L17.5516 1.76764H15.4775Z"
														fill="currentColor"></path>
												</g>
												<defs>
													<clipPath id="clip0_1108_2628">
														<rect width="38" height="23" fill="white"
															transform="translate(0.997803 0.478516)"></rect>
													</clipPath>
												</defs>
											</svg>