<svg width="27" height="32" viewBox="0 0 27 32" fill="none" xmlns="http://www.w3.org/2000/svg">
<g clip-path="url(#clip0_1119_3324)">
<g clip-path="url(#clip1_1119_3324)">
<path fill-rule="evenodd" clip-rule="evenodd" d="M0.80459 0.0950826C0.933771 0.0729373 1.45419 0.0397193 1.95984 0.0212649C3.64288 -0.0304075 6.32246 0.0175735 6.46272 0.106155C6.48117 0.117227 6.69524 0.143064 6.93884 0.1689C7.49247 0.220572 8.2528 0.346063 8.71047 0.460481C8.78362 0.480433 8.95865 0.521358 9.11947 0.558961L9.17183 0.571207C9.3453 0.608116 9.52615 0.659787 9.57782 0.678242C9.6295 0.696696 9.74391 0.733606 9.83619 0.759442C9.92846 0.785278 10.0355 0.818496 10.0761 0.833259C10.1167 0.848023 10.2163 0.884931 10.2975 0.918149C11.1871 1.25033 11.9621 1.6674 12.4567 2.08447C13.4643 2.93337 14.2062 3.97051 14.5937 5.07778C14.628 5.17261 14.6641 5.2712 14.6874 5.33464L14.7082 5.3915C14.7229 5.4321 14.7561 5.53914 14.782 5.63141C14.8078 5.72368 14.841 5.8381 14.8595 5.88977C14.8779 5.94144 14.9259 6.20719 14.9739 6.48031C15.044 6.91584 15.0551 7.11146 15.0551 8.04894C15.0514 8.97535 15.0403 9.19312 14.9702 9.65448C14.8853 10.1897 14.8595 10.3041 14.6712 10.9647C14.5273 11.4704 14.4018 11.8247 14.28 12.0609C14.2505 12.1126 14.2283 12.179 14.2283 12.2049C14.2283 12.3636 13.6267 13.4376 13.3093 13.8436C13.0768 14.1463 12.3017 14.9361 12.0323 15.1502C11.5082 15.5673 10.8844 15.9548 10.6925 15.988C10.5633 16.0065 10.5411 15.9991 10.4009 15.8441C10.1278 15.5451 9.92846 15.0542 9.68486 14.0651C9.63688 13.8621 9.59259 12.1753 9.6295 11.965C9.64426 11.8875 9.74761 11.7251 9.91 11.5258C10.4563 10.8577 10.8586 9.98296 11.0579 9.00857C11.1169 8.72437 11.1169 7.76474 11.0579 7.38458C11.032 7.22218 10.9619 6.94906 10.9065 6.77558C10.7921 6.42495 10.471 5.74214 10.423 5.74214C10.4046 5.74214 10.3898 5.72737 10.3898 5.70523C10.3898 5.52807 9.62212 4.68654 9.17183 4.36913C8.86917 4.15875 8.35614 3.88562 8.11623 3.8118C8.06161 3.79562 7.9981 3.77499 7.94154 3.75662C7.89495 3.74149 7.85299 3.72787 7.82465 3.71953C7.7656 3.69739 7.64749 3.66417 7.56629 3.64202C7.50679 3.6285 7.40568 3.6011 7.31231 3.57581L7.21566 3.54975C6.9573 3.47224 5.76514 3.40581 5.27794 3.43902C4.86826 3.46486 4.69847 3.52391 4.58037 3.68631C4.50287 3.78965 4.50286 3.79335 4.49179 8.37215L4.49178 8.37374C4.4844 10.8946 4.49178 13.0427 4.50286 13.1497C4.53238 13.4044 4.6468 13.4745 5.08971 13.5114C5.50678 13.5484 5.50678 13.5484 5.55845 14.2349C5.60274 14.8697 5.68025 15.4196 5.76145 15.7038C5.92754 16.2685 6.09363 16.7484 6.21174 16.9956C6.41474 17.4238 6.3889 17.4386 5.27056 17.4386C4.74646 17.4422 4.55453 17.4533 4.53238 17.4865C4.50286 17.5345 4.48071 18.5975 4.41797 23.2369L4.41512 23.4431C4.38651 25.5186 4.38266 25.7979 4.24108 25.9389C4.21907 25.9608 4.19372 25.9793 4.16444 26.0008L4.14853 26.0125C4.07841 26.0642 3.96399 26.1269 3.89386 26.1527C3.73515 26.2081 1.70517 26.2487 0.955917 26.2081L0.442884 26.1823L0.306321 26.0383C0.129158 25.8501 0.0959405 25.6803 0.0701043 24.7908C0.0147411 22.6501 -0.00740426 16.0692 0.0184319 9.06393C0.047959 1.40535 0.0516499 1.1396 0.118086 0.866478C0.247267 0.368209 0.424429 0.1689 0.80459 0.0950826ZM13.3795 2.3837C13.4386 2.26929 13.9332 2.15487 14.6344 2.09212C14.8079 2.07367 15.4317 2.05891 16.0185 2.05521C16.8711 2.05152 17.2181 2.06629 17.7274 2.12534C18.078 2.16594 18.4287 2.21392 18.5025 2.23238C18.5763 2.25083 18.7387 2.28774 18.8605 2.30989C18.9823 2.33572 19.1078 2.36894 19.141 2.3837C19.1742 2.40216 19.2665 2.4243 19.344 2.43907C19.7611 2.5055 20.7761 2.8709 21.3297 3.15879C21.4478 3.21784 21.5696 3.26952 21.5954 3.26952C21.6213 3.26952 21.6471 3.28428 21.6545 3.29904C21.6619 3.31381 21.8169 3.41715 21.9977 3.52788C22.1823 3.63491 22.4886 3.8416 22.6806 3.98186C23.105 4.29558 24.061 5.24414 24.3673 5.65014C24.6699 6.05983 25.0427 6.60977 25.1793 6.84968C25.4819 7.38116 25.8842 8.24114 25.9654 8.52903C25.9839 8.58808 26.0393 8.75417 26.0909 8.89812C26.1832 9.15648 26.2496 9.38531 26.412 10.0054C26.4711 10.2379 26.556 10.7583 26.6003 11.168C26.6926 12.0354 26.6409 14.1023 26.5154 14.6744C26.4932 14.7666 26.46 14.9216 26.4416 15.025C26.4231 15.1246 26.3899 15.2833 26.3678 15.3756C26.3537 15.4461 26.331 15.5446 26.3128 15.6233L26.2976 15.6893C26.2201 16.0363 26.0909 16.5198 26.0651 16.5419C26.0503 16.5567 26.0393 16.6047 26.0393 16.649C26.0393 16.6933 26.0282 16.7412 26.0134 16.756C25.9876 16.7818 25.9544 16.8704 25.7957 17.3318C25.6665 17.7083 25.1424 18.7749 24.8397 19.2695C24.1828 20.3472 23.4298 21.1666 22.5145 21.8051C22.2413 21.9934 21.636 22.344 21.4626 22.4141C21.3924 22.4437 21.2337 22.5138 21.1119 22.5692C20.6247 22.7943 20.5362 22.8312 20.4845 22.8312C20.455 22.8312 20.3701 22.857 20.2926 22.8903C19.8644 23.0748 19.3292 23.2151 18.5099 23.3516C17.6462 23.4919 15.9521 23.4956 14.8559 23.3516C14.2284 23.2704 13.254 23.049 13.0215 22.9346C12.9256 22.8866 12.9182 22.8681 12.9219 22.6836C12.9256 22.4769 12.9846 22.2739 13.1396 21.9085C13.1876 21.7978 13.2614 21.6132 13.3057 21.4988C13.5124 20.9599 14.0697 20.1959 14.4499 19.9339C14.568 19.8527 14.6307 19.8342 14.8448 19.8342C14.9814 19.8342 15.2213 19.8564 15.3726 19.8822C15.7085 19.9449 17.3214 19.9412 17.6056 19.8785C17.6625 19.8663 17.7484 19.8485 17.8376 19.8301C17.9104 19.815 17.9854 19.7995 18.0485 19.7862C18.3954 19.7161 19.0044 19.5574 19.0893 19.5168C19.1742 19.4725 19.7906 19.2141 19.8127 19.2141C19.8829 19.2141 20.6063 18.7269 20.8683 18.5018C21.2153 18.2065 21.7541 17.6049 21.9202 17.3318C22.0974 17.0328 22.1085 17.0181 22.1306 16.9996C22.1823 16.9516 22.5698 16.1027 22.6584 15.837C22.7138 15.6746 22.7728 15.5085 22.7913 15.4679C22.854 15.335 22.9685 14.8478 23.0312 14.4714C23.0607 14.2684 23.105 14.0211 23.1235 13.9251C23.1714 13.6963 23.1714 12.7182 23.1235 12.1645C23.0755 11.5888 22.8651 10.6033 22.7544 10.4483C22.7396 10.4261 22.699 10.3191 22.6658 10.2084C22.592 9.97216 22.1638 9.10111 22.1195 9.10111C22.1048 9.10111 22.09 9.07897 22.09 9.05313C22.09 8.97193 21.6582 8.37032 21.3371 8.00492C20.5768 7.14495 19.4178 6.34402 18.3807 5.96386L18.3525 5.95362C18.239 5.91239 18.1229 5.87017 18.0854 5.85314C17.8861 5.77563 17.6167 5.69812 17.3657 5.64645C17.2144 5.61692 17.0077 5.57263 16.9043 5.55048C16.8047 5.52834 16.3433 5.50619 15.8856 5.49512L15.0515 5.48036L14.9777 5.28843C14.9334 5.1814 14.8633 4.98947 14.819 4.8566C14.7378 4.62407 14.2801 3.66075 14.1841 3.51311L14.1649 3.48272C14.1309 3.42885 14.072 3.33571 14.0181 3.25475C13.9553 3.15141 13.7745 2.92996 13.6231 2.76017C13.3832 2.50181 13.3463 2.44276 13.3795 2.3837ZM8.0646 5.41753C8.0646 5.40276 8.23069 5.21822 8.42999 5.01153C8.85075 4.576 8.85444 4.57601 9.20139 4.81222C9.5225 5.02629 9.83991 5.42491 10.2238 6.08558C10.4341 6.45098 10.6482 6.93079 10.6482 7.03414C10.6482 7.06735 10.663 7.10795 10.6777 7.12641C10.7368 7.19284 10.8069 7.58039 10.7848 7.70588C10.7737 7.776 10.7183 7.90518 10.6556 7.99746C10.5965 8.08604 10.508 8.23367 10.46 8.32595C10.412 8.41822 10.3603 8.49942 10.3456 8.51049C10.3123 8.53633 10.0355 9.10103 10.0023 9.21176C9.98755 9.26343 9.96171 9.31879 9.94695 9.34094C9.93218 9.35939 9.85837 9.57716 9.78455 9.82076C9.74806 9.94117 9.71067 10.0634 9.67995 10.1638C9.64853 10.2665 9.6241 10.3463 9.61477 10.3781C9.59262 10.4408 9.57786 10.5331 9.57786 10.5811C9.57786 10.6327 9.5594 10.6918 9.54095 10.7103C9.4819 10.7693 9.3195 12.2457 9.3195 12.7402C9.3195 13.3345 9.38224 14.0911 9.44868 14.2793C9.4782 14.3642 9.50404 14.4639 9.50404 14.5008C9.50404 14.534 9.5188 14.5931 9.53726 14.63C9.55571 14.6632 9.58893 14.7665 9.61477 14.8588C9.67382 15.084 10.0503 15.9439 10.1573 16.1026C10.2053 16.1691 10.2422 16.2392 10.2422 16.2577C10.2422 16.2724 10.3123 16.3832 10.3972 16.5049C10.5744 16.7596 10.722 17.0254 10.722 17.0955C10.722 17.1213 10.6187 17.2653 10.4969 17.4129C9.86575 18.1585 9.80669 18.236 9.45606 18.7527C9.16817 19.1808 9.14233 19.2251 8.90243 19.6939C8.78432 19.9264 8.65145 20.1479 8.61085 20.1848C8.53334 20.2475 8.52965 20.2475 8.40785 20.1294C8.34141 20.0667 8.21592 19.9153 8.13103 19.7972C8.04614 19.6791 7.96125 19.5831 7.94649 19.5831C7.92803 19.5831 7.91696 19.5647 7.91696 19.5425C7.91696 19.5204 7.82469 19.3543 7.71396 19.1735C7.60323 18.9926 7.51096 18.8339 7.51096 18.8191C7.51096 18.8081 7.48882 18.7675 7.45929 18.7379C7.42976 18.7047 7.24891 18.3688 7.05698 17.9887C6.62146 17.1287 6.21546 16.1063 6.12688 15.6339C6.11212 15.5638 6.08628 15.4863 6.07152 15.4678C6.05675 15.4457 6.03461 15.3792 6.02354 15.3202C6.01317 15.2614 5.98661 15.1509 5.96509 15.0613L5.96079 15.0434C5.83161 14.4971 5.73565 13.7036 5.74672 13.257V11.7954C5.73565 11.3451 5.8353 10.4667 5.96079 9.85766L5.98097 9.76427C5.99829 9.68443 6.01563 9.60457 6.02354 9.56239C6.03461 9.49965 6.05675 9.43321 6.07152 9.41476C6.08628 9.39261 6.1195 9.27819 6.14533 9.15639C6.17117 9.03829 6.21177 8.88696 6.23761 8.82422C6.26344 8.76516 6.30404 8.64705 6.32619 8.56585C6.35202 8.48465 6.38524 8.385 6.4037 8.3444C6.42215 8.3038 6.48121 8.15247 6.53288 8.01222C6.62884 7.75755 6.98686 7.02306 7.1714 6.70196C7.3338 6.41776 7.76932 5.78662 7.92065 5.60945C7.99816 5.51718 8.0646 5.43229 8.0646 5.41753ZM14.9665 15.0099C15.4501 14.8807 15.7121 14.829 16.0554 14.7884C16.4208 14.7441 18.0226 14.7404 18.4175 14.7847C18.8161 14.8253 19.2701 14.9139 19.6724 15.0246C19.754 15.0479 19.909 15.0873 20.056 15.1246C20.0953 15.1346 20.1341 15.1445 20.1707 15.1538C20.3442 15.1944 20.5176 15.2461 20.5582 15.2645C20.7022 15.3273 21.1266 15.486 21.1525 15.486C21.1672 15.486 21.3998 15.593 21.6655 15.7259C22.2044 15.9879 22.2302 16.0212 22.1601 16.2832C22.0752 16.5822 21.7467 17.1321 21.3887 17.5713C20.8646 18.2099 19.9419 18.948 19.5543 19.0329C19.3772 19.0735 19.3439 19.0698 19.0745 18.9665C18.6722 18.8078 18.5689 18.7782 18.2514 18.7303C17.7015 18.6491 16.31 18.6971 16.0258 18.8041C15.9815 18.8225 15.8708 18.8594 15.7785 18.8853C15.5534 18.948 15.1363 19.1547 14.9112 19.3171C13.8593 20.0774 12.9698 21.384 12.4051 23.0154C12.2722 23.3992 12.2501 23.4731 12.1652 23.7905C12.1394 23.8826 12.0952 24.0373 12.0656 24.1407C12.0398 24.2404 11.9659 24.6246 11.9031 24.99C11.8404 25.3554 11.7739 25.7171 11.7555 25.7909C11.6964 26.005 11.6706 26.4811 11.7001 26.7949C11.7223 27.0495 11.737 27.0938 11.8441 27.1972C11.8711 27.2238 11.8919 27.2473 11.9153 27.268C12.0991 27.4317 12.4345 27.4252 17.1183 27.4186L21.9128 27.4112L22.0715 27.319C22.2634 27.2045 22.3483 27.0827 22.3483 26.913C22.3483 26.8428 22.3668 26.7395 22.3889 26.6804C22.4295 26.566 22.4037 26.0345 22.2745 24.584C22.1822 23.5764 22.0826 22.9526 21.9718 22.746C21.9202 22.6426 22.0124 22.5282 22.3225 22.3141C23.4297 21.5427 24.4706 20.524 24.8655 19.8228C24.9652 19.6493 25.0131 19.6013 25.1091 19.5755C25.1903 19.5533 25.2494 19.557 25.2826 19.5829C25.3084 19.605 25.3822 19.7674 25.4487 19.9446C25.5151 20.1217 25.5815 20.2804 25.5963 20.3026C25.6369 20.3543 25.8436 20.9854 25.8731 21.1441C25.8879 21.2216 25.9137 21.2917 25.9322 21.3028C25.9506 21.3139 25.9654 21.3545 25.9654 21.3951C25.9654 21.432 25.9802 21.4947 25.9986 21.5317C26.0318 21.5944 26.1425 22.089 26.2237 22.5356C26.2463 22.6516 26.2745 22.8098 26.2936 22.9169C26.2963 22.9324 26.2989 22.9469 26.3013 22.96C26.4784 23.9233 26.5522 25.2705 26.5818 28.0904C26.6039 30.1425 26.5707 31.0468 26.4637 31.3605C26.4304 31.4564 26.3419 31.593 26.257 31.6742L26.1093 31.8181L22.4111 31.844C20.3774 31.8551 17.7163 31.8883 16.4983 31.9104C14.6787 31.9473 10.6482 31.9695 1.19216 31.999C0.402312 32.0027 0.35064 31.999 0.254677 31.9252C0.199313 31.8846 0.118114 31.8034 0.0775141 31.748C0.00369634 31.6521 5.45987e-06 31.6041 5.45987e-06 29.7217C5.45987e-06 27.9948 -0.00260837 27.7629 0.106545 27.6119C0.127099 27.5834 0.151615 27.5578 0.180859 27.5256C0.335876 27.3522 0.760328 27.2267 0.970708 27.2894C1.06667 27.319 1.96725 27.3263 3.9714 27.319C6.65915 27.3064 6.96156 27.3125 7.10329 27.1647C7.12816 27.1387 7.14809 27.108 7.17509 27.0717C7.30796 26.8908 7.36332 26.6804 7.40023 26.1932C7.42238 25.9386 7.44821 25.695 7.45929 25.6544C7.47774 25.5806 7.48512 25.5363 7.61799 24.6874C7.74348 23.8754 7.79516 23.5949 7.93172 22.9969C7.95528 22.8943 7.98115 22.7832 8.00441 22.6832C8.03217 22.564 8.05624 22.4606 8.06828 22.4064C8.11626 22.1923 8.24544 21.7716 8.28604 21.683C8.3045 21.6498 8.33772 21.5501 8.35986 21.4615C8.38201 21.3729 8.44475 21.1995 8.49642 21.0777C8.53726 20.9787 8.5634 20.9159 8.58848 20.8555C8.62233 20.7741 8.65427 20.6973 8.71788 20.5425C8.90611 20.0738 9.40438 19.1916 9.7624 18.6971C10.209 18.0807 11.2351 16.9992 11.6927 16.6671C11.7887 16.5969 11.94 16.4825 12.0212 16.4161C12.1061 16.3496 12.2242 16.2684 12.2833 16.2389C12.3423 16.2057 12.4678 16.1245 12.5638 16.0581C12.8258 15.8698 13.5456 15.5081 13.9885 15.3383C14.0291 15.3236 14.114 15.2904 14.173 15.2645C14.3022 15.2129 14.7746 15.0578 14.9665 15.0099Z" fill="white"/>
</g>
</g>
<defs>
<clipPath id="clip0_1119_3324">
<rect width="27" height="32" fill="white"/>
</clipPath>
<clipPath id="clip1_1119_3324">
<rect width="27" height="32" fill="white"/>
</clipPath>
</defs>
</svg>
