<svg width="103" height="19" viewBox="0 0 103 19" fill="none" xmlns="http://www.w3.org/2000/svg">
<g clip-path="url(#clip0_1119_3302)">
<path d="M15.4343 7.03392C15.4343 7.03392 15.4937 6.22518 15.9389 6.37495C16.3842 6.55467 16.8888 7.27355 16.9185 7.78276C16.9482 8.29198 16.4733 9.43021 16.5623 9.81961C16.6514 10.1791 16.7998 10.9279 16.0874 10.9878" fill="url(#paint0_linear_1119_3302)"/>
<path d="M8.51807 0.983568C8.51807 0.983568 9.52732 0.654079 11.1006 1.37297C12.7035 2.09185 14.1877 3.79921 15.2266 6.34526C16.2655 8.89132 16.3842 13.1747 14.7516 14.9719C13.0894 16.7991 10.2397 18.8958 5.40129 16.6793C5.40129 16.6793 4.06552 16.3498 3.62027 14.1032C3.17501 11.8867 4.6592 5.35679 5.31224 4.78767C5.96528 4.21856 7.12294 0.983568 8.51807 0.983568V0.983568Z" fill="url(#paint1_linear_1119_3302)"/>
<path d="M15.5233 13.384C15.642 12.9048 15.6717 12.5453 15.6717 12.2757C15.5233 13.414 15.3748 14.1329 15.5233 13.384ZM15.7607 8.41172C15.7607 8.41172 14.9296 5.50622 14.9296 6.07534C14.9296 6.64446 14.4546 9.66977 14.2765 9.81954C14.0984 9.93935 13.8016 10.3887 12.169 10.9578C12.169 10.9578 12.9111 10.8979 14.2765 11.2573C15.2264 11.4969 15.6123 11.6767 15.6717 12.2458C15.8498 11.0476 15.9982 9.34028 15.7607 8.41172V8.41172ZM9.37874 13.9831C9.73494 13.7435 10.2396 12.5154 10.2396 12.5154L8.45854 12.5453C8.48823 12.5453 9.05221 14.2227 9.37874 13.9831ZM7.83518 14.8817C7.68677 14.9116 9.23032 17.6674 10.6254 14.8218C10.6254 14.8218 8.87411 14.5822 7.83518 14.8817ZM7.8055 11.1375C7.86487 11.1375 7.83518 11.0776 7.83518 11.0776L6.67752 10.9578C6.67752 10.9578 5.13397 10.8679 5.01524 10.5384C4.8965 10.2089 4.83714 9.54996 4.83714 9.54996H4.74808L4.83714 9.4601L6.26195 9.84949C5.72765 3.88873 8.99285 1.01318 8.99285 1.01318C3.23422 1.55235 1.77972 8.71126 2.37339 12.126C2.96706 15.5107 5.34176 16.6789 5.34176 16.6789C3.47169 15.301 4.3622 13.9831 4.3622 13.9831C4.18409 13.6236 4.03568 13.2942 3.94663 12.9946C3.88726 11.5868 6.76657 11.1375 7.8055 11.1375Z" fill="#DCB290"/>
<path d="M8.19141 12.3658C8.19141 12.3658 8.39919 12.3358 8.69603 12.3658C8.99286 12.3957 9.23033 12.5155 9.31939 12.5155C9.40844 12.5155 9.67559 12.3658 9.79432 12.3358C9.91306 12.3058 10.3286 12.186 10.388 12.186C10.4474 12.186 10.4474 12.4856 10.4474 12.4856C10.4474 12.4856 10.4474 12.5155 10.4177 12.5155C10.2989 12.5455 9.94274 12.6353 9.73496 12.7552C9.52717 12.9049 9.17097 12.875 8.87413 12.7552C8.57729 12.6653 8.57729 12.5754 8.19141 12.3658Z" fill="black"/>
<path d="M9.31933 12.8747C9.17091 12.8747 8.99281 12.8447 8.87408 12.7848C8.72566 12.7249 8.63661 12.665 8.54756 12.6051L8.19135 12.3654C8.19135 12.3355 8.39914 12.3055 8.69597 12.3355C8.87408 12.3654 9.02249 12.3954 9.14123 12.4254C9.23028 12.4553 9.28965 12.4853 9.31933 12.4853C9.3787 12.4853 9.46775 12.4553 9.58648 12.3954C9.67554 12.3654 9.7349 12.3355 9.79427 12.3055C9.85364 12.3055 9.94269 12.2756 10.0317 12.2456C10.2098 12.1857 10.3286 12.1558 10.3583 12.1558C10.4176 12.2157 10.4176 12.4254 10.4176 12.4853C10.4176 12.4853 10.4176 12.5152 10.3879 12.5452L10.3286 12.5751C10.1802 12.6051 9.88332 12.6949 9.7349 12.7848C9.61617 12.8447 9.46775 12.8747 9.31933 12.8747V12.8747ZM8.45851 12.3654C8.31009 12.3654 8.19135 12.3954 8.19135 12.3954C8.36945 12.4553 8.45851 12.5452 8.54756 12.6051C8.63661 12.665 8.72566 12.7249 8.87408 12.7848C9.17091 12.9046 9.52712 12.9046 9.70522 12.7848C9.85364 12.6949 10.1505 12.6051 10.2989 12.5452L10.3583 12.5152C10.3583 12.3954 10.3583 12.2456 10.3286 12.2157C10.2989 12.2157 10.1208 12.2456 10.0021 12.3055C9.913 12.3355 9.79427 12.3654 9.76459 12.3654C9.70522 12.3654 9.64585 12.4254 9.5568 12.4553C9.43807 12.4853 9.34901 12.5452 9.28965 12.5452C9.23028 12.5452 9.17091 12.5152 9.08186 12.4853C8.96313 12.4553 8.81471 12.3954 8.63661 12.3954C8.60692 12.3654 8.51787 12.3654 8.45851 12.3654ZM8.2804 10.748C8.2804 10.748 8.48819 11.6166 8.16167 12.0659C8.16167 12.0659 9.70522 12.3654 8.2804 10.748ZM9.88332 8.50143L10.1208 9.8793C10.1208 9.8793 13.1782 8.5913 13.7719 8.14199C14.3656 7.69269 14.039 6.94385 14.039 6.94385L9.88332 8.50143ZM8.33977 8.38162L8.25072 9.66962C8.25072 9.66962 4.77773 8.6512 4.18406 8.2019C3.59038 7.75259 3.85754 7.00375 3.85754 7.00375L8.33977 8.38162ZM2.43272 9.78944V9.81939C2.40304 9.93921 2.19525 10.6581 2.1062 11.1673C2.1062 11.1673 2.25462 11.4968 2.25462 11.4369C2.2843 11.4069 2.34367 11.2572 2.34367 11.1973" fill="black"/>
<path d="M12.2818 10.8037C12.5733 10.7577 12.7727 10.4818 12.727 10.1876C12.6814 9.89345 12.408 9.69231 12.1165 9.73837C11.825 9.78444 11.6256 10.0603 11.6713 10.3545C11.7169 10.6486 11.9903 10.8498 12.2818 10.8037Z" fill="black"/>
<path d="M10.5659 11.0475C10.5659 11.0475 10.7737 9.81935 11.9611 9.66959C12.7625 9.57973 14.3654 9.07051 14.7513 8.71107C15.1372 8.38158 13.5937 9.84931 12.2579 10.059C10.9221 10.2687 10.6847 10.8977 10.5659 11.0475V11.0475Z" fill="black"/>
<path d="M6.69416 10.4129C6.73069 10.1174 6.52293 9.84803 6.23011 9.81116C5.93729 9.7743 5.6703 9.98396 5.63377 10.2794C5.59724 10.5749 5.805 10.8443 6.09782 10.8812C6.39064 10.9181 6.65763 10.7084 6.69416 10.4129Z" fill="black"/>
<path d="M7.83528 11.0775C7.83528 11.0775 7.59781 9.84935 6.41046 9.72954C5.60901 9.66963 3.9764 9.19038 3.59052 8.86089C3.20463 8.5314 4.77786 9.96917 6.14331 10.1489C7.44939 10.3286 7.68686 10.9277 7.83528 11.0775V11.0775Z" fill="black"/>
<path d="M3.50123 8.83105C3.50123 8.83105 3.44186 9.31031 3.70901 9.54994C3.97616 9.78957 7.09295 10.2988 7.3601 10.4485C7.59757 10.5983 6.94453 10.0891 6.94453 10.0891C6.94453 10.0891 3.94648 9.28036 3.50123 8.83105ZM7.80536 14.6421C7.80536 14.6421 8.72555 14.4923 8.87397 14.4923C9.02239 14.5222 9.34891 14.5821 9.52701 14.5522C9.70511 14.5522 9.88322 14.4024 10.1207 14.4324C10.3285 14.4623 10.5956 14.6121 11.0112 14.5522C11.4268 14.4923 11.9908 14.3725 11.9908 14.3725C11.9908 14.3725 10.7737 15.301 8.07251 14.9116C8.07251 14.9116 7.30074 14.7918 6.88516 14.6421C6.85548 14.6421 7.62726 14.672 7.80536 14.6421V14.6421Z" fill="black"/>
<path d="M16.9182 9.25041C17.1854 8.7412 17.2447 8.32185 17.2447 8.08222V8.02231C17.2447 7.81264 17.1854 7.69282 17.1854 7.69282C17.037 7.09375 16.562 6.16519 15.9683 6.10528H15.9387C15.7012 6.07533 15.5528 6.19515 15.4934 6.28501C15.1966 5.23663 14.7216 4.18826 13.8014 2.99011C13.8014 2.96016 13.7718 2.96016 13.7421 2.9302C12.2282 0.953268 10.18 -0.184968 8.6068 0.0247071C6.29147 0.324243 4.48076 2.78044 4.48076 2.78044V2.81039C1.74987 6.10528 1.92797 10.1191 1.8686 10.0592C1.89829 10.0592 1.74987 11.0177 2.01702 12.4854C2.07639 12.7849 2.16544 13.1144 2.28417 13.4739C2.61069 14.672 3.35279 16.0499 4.98539 16.9485L5.16349 17.0383C7.03356 18.1466 9.34889 18.2664 11.1596 17.7872C13 17.3379 14.217 16.2296 14.7216 15.6305C15.998 13.9831 16.2652 12.5154 16.1761 11.0476C16.473 11.1674 16.9182 10.9578 16.9182 10.4785C16.9479 10.149 16.7401 9.69971 16.9182 9.25041V9.25041ZM16.6214 8.14213C16.6214 8.14213 16.5323 8.59143 16.3839 9.10064C16.2949 9.37023 16.2949 9.66976 16.3246 9.90939C16.3246 9.9693 16.3246 10.0292 16.3542 10.0891C16.3839 10.3287 16.3839 10.5085 16.3839 10.5384C16.3839 10.6582 16.3542 10.778 16.2058 10.9278C16.1464 10.3587 16.0574 9.78958 15.9387 9.1905C15.8793 11.437 15.7606 13.0845 14.1873 15.0914C13.7718 15.6006 12.7031 16.589 11.0409 16.9784C9.40825 17.3978 7.27103 17.278 5.63843 16.2895C2.19512 14.2527 2.72943 9.99925 2.69974 9.99925C2.69974 9.81953 2.69974 6.01542 5.22286 3.13988C6.49925 1.67215 8.54743 1.04313 10.18 1.46248C11.8126 1.82192 12.8219 2.9302 13.2671 3.43942C14.8404 5.50621 15.345 7.00389 15.9683 9.16055C15.9387 8.68129 15.909 8.23199 15.8496 7.78269C16.5323 7.69282 16.3246 8.71125 16.3246 8.71125C16.4433 8.41171 16.473 7.75273 16.3839 7.57301C16.3246 7.36334 16.1168 7.15366 15.9683 7.09375C15.8496 7.03385 15.8199 7.18361 15.7902 7.36334C15.7902 7.27347 15.7606 7.18361 15.7309 7.09375C15.7012 6.79422 15.7902 6.52464 16.2355 6.91403C16.3542 7.03385 16.473 7.18361 16.5323 7.36334C16.7401 7.75273 16.6214 8.14213 16.6214 8.14213V8.14213Z" fill="black"/>
<path d="M2.69998 7.24346C2.69998 7.24346 2.61093 6.43472 2.16567 6.61444C1.72042 6.79416 1.24548 7.543 1.21579 8.05221C1.18611 8.56142 1.72042 9.69966 1.63137 10.0591C1.572 10.4485 1.27516 11.3771 2.22504 11.1973" fill="url(#paint2_linear_1119_3302)"/>
<path d="M2.55142 8.74139C2.55142 8.74139 2.49205 6.22529 1.80933 6.88427C1.80933 6.88427 2.19521 6.49487 2.43268 6.64464C2.67015 6.79441 2.69984 7.06399 2.69984 7.06399C2.69984 7.06399 2.7592 7.15385 2.7592 7.1838C2.7592 7.21376 2.55142 8.74139 2.55142 8.74139V8.74139Z" fill="black"/>
<path d="M1.8688 8.92064C1.8688 8.92064 1.63133 8.14184 1.66102 7.90221C1.6907 7.69254 2.34374 7.15337 2.37342 7.18333C2.40311 7.24324 2.58121 7.93217 2.58121 7.93217C2.58121 7.93217 2.07659 7.72249 1.92817 7.81235C1.83912 7.87226 1.80943 8.65105 1.8688 8.92064V8.92064Z" fill="black"/>
<path d="M2.72957 6.58486C2.78894 6.55491 2.78894 6.495 2.64052 6.37518C2.52179 6.28532 2.37337 6.28532 2.25463 6.31528H2.22495C2.19527 6.31528 2.16558 6.31528 2.1359 6.34523C2.10622 6.34523 2.10622 6.34523 2.07653 6.37518L1.89843 6.46505C1.60159 6.64477 1.30476 7.00421 1.15634 7.39361C0.859501 7.99268 1.06729 8.6217 1.06729 8.5618C1.06729 8.5618 1.21571 9.07101 1.33444 9.55026C1.51254 9.96961 1.21571 10.5088 1.33444 10.8383C1.48286 11.4673 2.07653 11.3774 2.28432 11.1678C2.25463 11.1678 2.22495 11.1378 2.19527 11.1378C2.19527 11.1378 2.16558 11.1079 2.1359 11.1079H2.10622C1.77969 10.9581 1.89843 10.4189 1.89843 10.4189C1.9578 10.1493 1.98748 9.78989 1.86875 9.43045C1.72033 8.89129 1.57191 8.44198 1.60159 8.44198C1.60159 8.41203 1.45317 8.02263 1.66096 7.60328C1.80938 7.12402 2.314 6.82449 2.314 6.82449C2.28432 6.73463 2.55147 6.9443 2.72957 7.21389C2.72957 7.09407 2.84831 6.79454 2.72957 6.58486V6.58486Z" fill="black"/>
<path d="M21.7583 13.1117V14.8371H25.7078V13.1117H24.479V6.2977H24.7131L27.6386 14.8371H28.6625L31.5588 6.2977H31.8221V13.1117H30.6811V14.8371H35.3912V13.1117H34.1918V6.2977H35.3912V4.57227H30.5934L28.5162 10.5967L26.4684 4.57227H21.7583V6.2977H22.9578V13.1117H21.7583Z" fill="white"/>
<path fill-rule="evenodd" clip-rule="evenodd" d="M36.4737 14.0183C37.1173 14.6909 37.9364 15.0126 38.9018 15.0126C39.8673 15.0126 40.6864 14.6617 41.33 14.0183C42.0029 13.3164 42.3247 12.4098 42.3247 11.2693C42.3247 10.0995 42.0029 9.19292 41.33 8.52029C40.6864 7.84767 39.8673 7.52598 38.9018 7.52598C37.9364 7.52598 37.1465 7.84767 36.4737 8.52029C35.8008 9.19292 35.479 10.0995 35.479 11.2693C35.479 12.4391 35.8008 13.3457 36.4737 14.0183ZM39.8088 12.7315C39.5747 13.0532 39.2529 13.2287 38.8726 13.2287C38.463 13.2287 38.1412 13.0532 37.9072 12.673C37.7024 12.3221 37.5854 11.8542 37.5854 11.2985C37.5854 9.92404 38.0242 9.25141 38.8726 9.25141C39.2529 9.25141 39.5747 9.42688 39.8088 9.77781C40.0428 10.1287 40.1598 10.5967 40.1598 11.2108C40.1598 11.8834 40.0428 12.4098 39.8088 12.7315Z" fill="white"/>
<path d="M42.5002 7.6722V9.33914H43.4657V13.1994H42.471V14.8371H46.5667V13.1994H45.572V9.98253C45.9816 9.66083 46.3912 9.51461 46.7715 9.51461C46.9763 9.51461 47.1518 9.5731 47.2396 9.71932C47.3273 9.86555 47.3858 10.1287 47.3858 10.5089V14.8371H50.4576V13.1994H49.463V10.3335C49.463 8.49105 48.8194 7.55522 47.5029 7.55522C46.8593 7.55522 46.2156 7.81842 45.6013 8.34483V7.6722H42.5002Z" fill="white"/>
<path fill-rule="evenodd" clip-rule="evenodd" d="M57.1863 13.2287L55.5773 12.673C55.0507 13.2579 54.5534 13.5211 54.056 13.4919C53.6757 13.4919 53.3246 13.3457 52.9736 13.0825C52.6518 12.8193 52.447 12.3513 52.4177 11.708H57.2741C57.2741 10.9476 57.1571 10.2457 56.9523 9.63159C56.9142 9.53175 56.8731 9.43423 56.8285 9.33916H57.6544L60.0241 15.1588L59.5853 16.4456H58.3273V18.0541H60.6092L63.7395 9.30991H64.7049V7.67221H61.2821V9.30991H62.1305L60.9603 12.5268L59.8778 9.30991H60.6385V7.67221H56.7183V9.12243C56.4985 8.72332 56.2067 8.37287 55.8113 8.08162C55.2847 7.6722 54.6119 7.46749 53.8805 7.46749C52.8566 7.46749 52.0082 7.84767 51.3353 8.57878C50.6624 9.33914 50.3406 10.2457 50.3406 11.357C50.3406 12.4391 50.6624 13.3164 51.306 13.989C51.9497 14.6617 52.8566 14.9834 53.9975 14.9834C55.4603 14.9834 56.5135 14.3985 57.1863 13.2287ZM54.7289 9.42688C54.9629 9.71932 55.1092 10.041 55.1677 10.4504H52.4177C52.564 9.48537 53.0028 9.01745 53.7635 9.01745C54.173 9.01745 54.4949 9.13443 54.7289 9.42688Z" fill="white"/>
<path d="M64.3538 13.1111V14.8365H68.5373V13.1111H67.25V6.29711H67.4841L70.5851 14.8365H71.6676L74.7394 6.29711H74.9734V13.1111H73.7739V14.8365H78.7473V13.1111H77.4601V6.29711H78.7473V4.57167H73.6862L71.492 10.5961L69.3271 4.57167H64.3538V6.29711H65.641V13.1111H64.3538Z" fill="#3498DB"/>
<path fill-rule="evenodd" clip-rule="evenodd" d="M79.8883 14.0177C80.5904 14.6903 81.4388 15.012 82.4627 15.012C83.5159 15.012 84.3643 14.6611 85.0664 14.0177C85.7393 13.3158 86.0904 12.4092 86.0904 11.2687C86.0904 10.0989 85.7393 9.19233 85.0372 8.5197C84.3351 7.84707 83.4867 7.52538 82.4627 7.52538C81.4388 7.52538 80.5904 7.84707 79.8883 8.5197C79.1861 9.19233 78.8351 10.0989 78.8351 11.2687C78.8351 12.4385 79.1861 13.3451 79.8883 14.0177ZM83.4574 12.7309C83.1941 13.0526 82.8723 13.2281 82.4627 13.2281C81.9946 13.2281 81.6728 13.0526 81.4388 12.6724C81.2048 12.3215 81.0877 11.8536 81.0877 11.2979C81.0877 9.92344 81.5558 9.25082 82.4627 9.25082C82.8723 9.25082 83.2234 9.42628 83.4574 9.77722C83.7207 10.1282 83.8377 10.5961 83.8377 11.2102C83.8377 11.8828 83.7207 12.4092 83.4574 12.7309Z" fill="#3498DB"/>
<path d="M94.5159 6.20937V4.51318H97.8802V11.0142L100.191 9.04611H98.7286V7.67161H102.912V9.13384H102.21L100.191 10.9178L102.034 13.1988H103V14.8365H100.864L97.8802 11.1365V13.2281H98.6994V14.8073H91.5026V10.4791C91.5026 10.0989 91.4441 9.83571 91.3563 9.68949C91.2685 9.54326 91.093 9.48477 90.859 9.48477C90.4494 9.48477 90.0398 9.631 89.601 9.95269V13.1696H90.6542V14.8073H86.3244V13.1696H87.3776V9.30931H86.3244V7.6716H89.5717V8.34423C90.2446 7.81783 90.9175 7.55463 91.5903 7.55463C92.9653 7.55463 93.6675 8.49046 93.6675 10.3329V13.1988H95.6276V6.20937H94.5159Z" fill="#3498DB"/>
</g>
<defs>
<linearGradient id="paint0_linear_1119_3302" x1="16.0897" y1="8.36226" x2="15.8208" y2="10.6105" gradientUnits="userSpaceOnUse">
<stop stop-color="#FCD4AE"/>
<stop offset="1" stop-color="#DCB290"/>
</linearGradient>
<linearGradient id="paint1_linear_1119_3302" x1="9.77674" y1="11.7387" x2="9.62795" y2="2.28949" gradientUnits="userSpaceOnUse">
<stop stop-color="#FCD4AE"/>
<stop offset="1" stop-color="#DCB290"/>
</linearGradient>
<linearGradient id="paint2_linear_1119_3302" x1="1.89539" y1="8.55957" x2="1.61997" y2="10.2964" gradientUnits="userSpaceOnUse">
<stop stop-color="#FCD4AE"/>
<stop offset="1" stop-color="#DCB290"/>
</linearGradient>
<clipPath id="clip0_1119_3302">
<rect width="102.003" height="18.0537" fill="white" transform="translate(0.996582)"/>
</clipPath>
</defs>
</svg>
