<svg width="48" height="48" viewBox="0 0 48 48" fill="none" xmlns="http://www.w3.org/2000/svg">
<g filter="url(#filter0_d_1110_2829)">
<rect x="4" width="40" height="40" rx="8" fill="#272727"/>
<rect x="4.5" y="0.5" width="39" height="39" rx="7.5" stroke="url(#paint0_linear_1110_2829)" stroke-opacity="0.15"/>
</g>
<path d="M12 14V16.8318H14.7426C14.7426 16.8318 15.9905 16.9229 15.9905 18.0935V21.8785C15.9905 22.979 14.886 23.1262 14.886 23.1262H12V26H36V20.757L29.9613 20.7553L29.9559 21.8225C29.9563 21.5981 30.0689 22.937 28.7779 23.1192C27.487 23.1192 23.234 23.1122 23.234 23.1122L23.2269 21.6122L28.656 21.6192L28.656 18.4649L23.2341 18.458L23.2412 16.8668L28.8509 16.8659C28.8509 16.8659 29.9828 17.007 29.9685 18.2547C29.9685 19.6145 29.9756 19.2289 29.9756 19.2289L36 19.222V14H12Z" fill="white"/>
<defs>
<filter id="filter0_d_1110_2829" x="0" y="0" width="48" height="48" filterUnits="userSpaceOnUse" color-interpolation-filters="sRGB">
<feFlood flood-opacity="0" result="BackgroundImageFix"/>
<feColorMatrix in="SourceAlpha" type="matrix" values="0 0 0 0 0 0 0 0 0 0 0 0 0 0 0 0 0 0 127 0" result="hardAlpha"/>
<feOffset dy="4"/>
<feGaussianBlur stdDeviation="2"/>
<feComposite in2="hardAlpha" operator="out"/>
<feColorMatrix type="matrix" values="0 0 0 0 0 0 0 0 0 0 0 0 0 0 0 0 0 0 0.25 0"/>
<feBlend mode="normal" in2="BackgroundImageFix" result="effect1_dropShadow_1110_2829"/>
<feBlend mode="normal" in="SourceGraphic" in2="effect1_dropShadow_1110_2829" result="shape"/>
</filter>
<linearGradient id="paint0_linear_1110_2829" x1="24" y1="0" x2="24" y2="40" gradientUnits="userSpaceOnUse">
<stop stop-color="white"/>
<stop offset="1" stop-color="white" stop-opacity="0"/>
</linearGradient>
</defs>
</svg>
