<svg width="38" height="39" viewBox="0 0 38 39" fill="none" xmlns="http://www.w3.org/2000/svg">
<rect width="38" height="38" rx="6" fill="#0086CB" fill-opacity="0.2"/>
<rect x="0.5" y="0.5" width="37" height="37" rx="5.5" stroke="url(#paint0_linear_1117_3222)" stroke-opacity="0.1"/>
<g filter="url(#filter0_di_1117_3222)">
<path d="M11.2369 18.4575C16.0687 16.3406 19.2907 14.9451 20.9028 14.2708C25.5058 12.3457 26.4622 12.0113 27.0856 12.0001C27.2227 11.9978 27.5293 12.032 27.7279 12.194C27.8956 12.3308 27.9417 12.5156 27.9638 12.6453C27.9859 12.7751 28.0134 13.0706 27.9915 13.3015C27.7421 15.9368 26.6628 22.3322 26.1137 25.2839C25.8813 26.5328 25.4239 26.9516 24.981 26.9926C24.0184 27.0816 23.2876 26.3529 22.3553 25.7385C20.8965 24.7769 20.0724 24.1783 18.6564 23.24C17.02 22.1557 18.0808 21.5597 19.0134 20.5857C19.2575 20.3308 23.4984 16.452 23.5804 16.1001C23.5907 16.0561 23.6002 15.892 23.5033 15.8054C23.4064 15.7188 23.2634 15.7484 23.1601 15.772C23.0138 15.8054 20.6834 17.3542 16.1689 20.4186C15.5074 20.8753 14.9083 21.0979 14.3714 21.0862C13.7796 21.0734 12.6413 20.7497 11.795 20.4731C10.757 20.1338 9.93204 19.9545 10.0039 19.3783C10.0413 19.0781 10.4523 18.7712 11.2369 18.4575Z" fill="#0088CC"/>
</g>
<defs>
<filter id="filter0_di_1117_3222" x="3" y="7" width="32" height="36" filterUnits="userSpaceOnUse" color-interpolation-filters="sRGB">
<feFlood flood-opacity="0" result="BackgroundImageFix"/>
<feColorMatrix in="SourceAlpha" type="matrix" values="0 0 0 0 0 0 0 0 0 0 0 0 0 0 0 0 0 0 127 0" result="hardAlpha"/>
<feOffset dy="8"/>
<feGaussianBlur stdDeviation="2"/>
<feComposite in2="hardAlpha" operator="out"/>
<feColorMatrix type="matrix" values="0 0 0 0 0 0 0 0 0 0 0 0 0 0 0 0 0 0 0.25 0"/>
<feBlend mode="normal" in2="BackgroundImageFix" result="effect1_dropShadow_1117_3222"/>
<feBlend mode="normal" in="SourceGraphic" in2="effect1_dropShadow_1117_3222" result="shape"/>
<feColorMatrix in="SourceAlpha" type="matrix" values="0 0 0 0 0 0 0 0 0 0 0 0 0 0 0 0 0 0 127 0" result="hardAlpha"/>
<feOffset dy="1"/>
<feGaussianBlur stdDeviation="1"/>
<feComposite in2="hardAlpha" operator="arithmetic" k2="-1" k3="1"/>
<feColorMatrix type="matrix" values="0 0 0 0 1 0 0 0 0 1 0 0 0 0 1 0 0 0 0.25 0"/>
<feBlend mode="normal" in2="shape" result="effect2_innerShadow_1117_3222"/>
</filter>
<linearGradient id="paint0_linear_1117_3222" x1="19" y1="0" x2="19" y2="38" gradientUnits="userSpaceOnUse">
<stop stop-color="white"/>
<stop offset="1" stop-color="white" stop-opacity="0"/>
</linearGradient>
</defs>
</svg>
