<svg width="38" height="40" viewBox="0 0 38 40" fill="none" xmlns="http://www.w3.org/2000/svg">
<rect width="38" height="38" rx="6" fill="#2D082D"/>
<rect x="0.5" y="0.5" width="37" height="37" rx="5.5" stroke="url(#paint0_linear_1117_3159)" stroke-opacity="0.1"/>
<g filter="url(#filter0_di_1117_3159)">
<path d="M13.7927 21.379C13.7927 22.4252 12.9478 23.2707 11.9025 23.2707C10.8571 23.2707 10.0122 22.4252 10.0122 21.379C10.0122 20.3328 10.8571 19.4873 11.9025 19.4873H13.7927V21.379Z" fill="#E01E5A"/>
<path d="M14.7383 21.379C14.7383 20.3328 15.5832 19.4873 16.6285 19.4873C17.6739 19.4873 18.5188 20.3328 18.5188 21.379V26.1083C18.5188 27.1544 17.6739 28 16.6285 28C15.5832 28 14.7383 27.1544 14.7383 26.1083V21.379Z" fill="#E01E5A"/>
<path d="M16.6285 13.7834C15.5832 13.7834 14.7383 12.9379 14.7383 11.8917C14.7383 10.8455 15.5832 10 16.6285 10C17.6739 10 18.5188 10.8455 18.5188 11.8917V13.7834H16.6285Z" fill="#36C5F0"/>
<path d="M16.6283 14.7432C17.6736 14.7432 18.5185 15.5887 18.5185 16.6349C18.5185 17.681 17.6736 18.5266 16.6283 18.5266H11.8883C10.8429 18.5266 9.99805 17.681 9.99805 16.6349C9.99805 15.5887 10.8429 14.7432 11.8883 14.7432H16.6283Z" fill="#36C5F0"/>
<path d="M24.2041 16.6349C24.2041 15.5887 25.049 14.7432 26.0944 14.7432C27.1397 14.7432 27.9846 15.5887 27.9846 16.6349C27.9846 17.681 27.1397 18.5266 26.0944 18.5266H24.2041V16.6349Z" fill="#2EB67D"/>
<path d="M23.2576 16.6353C23.2576 17.6815 22.4127 18.527 21.3673 18.527C20.3219 18.527 19.4771 17.6815 19.4771 16.6353V11.8917C19.4771 10.8455 20.3219 10 21.3673 10C22.4127 10 23.2576 10.8455 23.2576 11.8917V16.6353Z" fill="#2EB67D"/>
<path d="M21.3673 24.2168C22.4127 24.2168 23.2576 25.0623 23.2576 26.1085C23.2576 27.1547 22.4127 28.0002 21.3673 28.0002C20.3219 28.0002 19.4771 27.1547 19.4771 26.1085V24.2168H21.3673Z" fill="#ECB22E"/>
<path d="M21.3673 23.2707C20.3219 23.2707 19.4771 22.4252 19.4771 21.379C19.4771 20.3328 20.3219 19.4873 21.3673 19.4873H26.1073C27.1526 19.4873 27.9975 20.3328 27.9975 21.379C27.9975 22.4252 27.1526 23.2707 26.1073 23.2707H21.3673Z" fill="#ECB22E"/>
</g>
<defs>
<filter id="filter0_di_1117_3159" x="3" y="7" width="32" height="36" filterUnits="userSpaceOnUse" color-interpolation-filters="sRGB">
<feFlood flood-opacity="0" result="BackgroundImageFix"/>
<feColorMatrix in="SourceAlpha" type="matrix" values="0 0 0 0 0 0 0 0 0 0 0 0 0 0 0 0 0 0 127 0" result="hardAlpha"/>
<feOffset dy="8"/>
<feGaussianBlur stdDeviation="2"/>
<feComposite in2="hardAlpha" operator="out"/>
<feColorMatrix type="matrix" values="0 0 0 0 0 0 0 0 0 0 0 0 0 0 0 0 0 0 0.25 0"/>
<feBlend mode="normal" in2="BackgroundImageFix" result="effect1_dropShadow_1117_3159"/>
<feBlend mode="normal" in="SourceGraphic" in2="effect1_dropShadow_1117_3159" result="shape"/>
<feColorMatrix in="SourceAlpha" type="matrix" values="0 0 0 0 0 0 0 0 0 0 0 0 0 0 0 0 0 0 127 0" result="hardAlpha"/>
<feOffset dy="1"/>
<feGaussianBlur stdDeviation="1"/>
<feComposite in2="hardAlpha" operator="arithmetic" k2="-1" k3="1"/>
<feColorMatrix type="matrix" values="0 0 0 0 1 0 0 0 0 1 0 0 0 0 1 0 0 0 0.25 0"/>
<feBlend mode="normal" in2="shape" result="effect2_innerShadow_1117_3159"/>
</filter>
<linearGradient id="paint0_linear_1117_3159" x1="19" y1="0" x2="19" y2="38" gradientUnits="userSpaceOnUse">
<stop stop-color="white"/>
<stop offset="1" stop-color="white" stop-opacity="0"/>
</linearGradient>
</defs>
</svg>
