<svg width="38" height="38" viewBox="0 0 38 38" fill="none" xmlns="http://www.w3.org/2000/svg">
<rect width="38" height="38" rx="6" fill="#02A6FF" fill-opacity="0.2"/>
<rect x="0.5" y="0.5" width="37" height="37" rx="5.5" stroke="url(#paint0_linear_1119_3393)" stroke-opacity="0.1"/>
<g filter="url(#filter0_d_1119_3393)">
<path d="M19.3182 27.0001H11.3388C10.0471 27.0001 9 25.953 9 24.6612V15.581C9 14.2893 10.0471 13.2422 11.3388 13.2422H22.7577L19.3182 27.0001Z" fill="#006DA8"/>
<path d="M19.3789 11H27.3584C28.65 11 29.6972 12.0471 29.6972 13.3388V22.419C29.6972 23.7108 28.65 24.7579 27.3584 24.7579H15.9395L19.3789 11Z" fill="#9F73FF"/>
<path d="M19.3789 11H27.3584C28.65 11 29.6972 12.0471 29.6972 13.3388V22.419C29.6972 23.7108 28.65 24.7579 27.3584 24.7579H15.9395L19.3789 11Z" fill="url(#paint1_linear_1119_3393)"/>
</g>
<defs>
<filter id="filter0_d_1119_3393" x="5" y="11" width="28.6973" height="24" filterUnits="userSpaceOnUse" color-interpolation-filters="sRGB">
<feFlood flood-opacity="0" result="BackgroundImageFix"/>
<feColorMatrix in="SourceAlpha" type="matrix" values="0 0 0 0 0 0 0 0 0 0 0 0 0 0 0 0 0 0 127 0" result="hardAlpha"/>
<feOffset dy="4"/>
<feGaussianBlur stdDeviation="2"/>
<feComposite in2="hardAlpha" operator="out"/>
<feColorMatrix type="matrix" values="0 0 0 0 0 0 0 0 0 0 0 0 0 0 0 0 0 0 0.25 0"/>
<feBlend mode="normal" in2="BackgroundImageFix" result="effect1_dropShadow_1119_3393"/>
<feBlend mode="normal" in="SourceGraphic" in2="effect1_dropShadow_1119_3393" result="shape"/>
</filter>
<linearGradient id="paint0_linear_1119_3393" x1="19" y1="0" x2="19" y2="38" gradientUnits="userSpaceOnUse">
<stop stop-color="white"/>
<stop offset="1" stop-color="white" stop-opacity="0"/>
</linearGradient>
<linearGradient id="paint1_linear_1119_3393" x1="20.6357" y1="22.2609" x2="31.9401" y2="13.0533" gradientUnits="userSpaceOnUse">
<stop stop-color="#01A4FF"/>
<stop offset="0.791667" stop-color="#01FFC2"/>
</linearGradient>
</defs>
</svg>
