<svg width="40" height="40" viewBox="0 0 40 40" fill="none" xmlns="http://www.w3.org/2000/svg">
<rect width="40" height="40" rx="8" fill="url(#paint0_angular_1117_3081)" fill-opacity="0.1"/>
<rect x="0.5" y="0.5" width="39" height="39" rx="7.5" stroke="url(#paint1_linear_1117_3081)" stroke-opacity="0.1"/>
<g filter="url(#filter0_d_1117_3081)">
<path d="M21.6973 12.992L22.5093 13.132C22.7519 13.1133 23.1253 13.2907 23.6293 13.664C24.1333 14.0373 24.4693 14.4107 24.6373 14.784C25.2719 15.7733 25.1133 16.9773 24.1613 18.396C23.9559 18.6387 23.3773 19.2827 22.4253 20.328C21.4919 21.3547 20.9319 21.9427 20.7453 22.092C20.5959 22.1667 20.2786 22.4467 19.7933 22.932C19.3079 23.3987 18.8693 23.856 18.4773 24.304C18.0853 24.752 17.8893 24.9947 17.8893 25.032C17.9079 25.0693 18.0479 25.0413 18.3093 24.948C18.5893 24.836 18.8786 24.7333 19.1773 24.64C19.4759 24.528 20.0733 24.4067 20.9693 24.276C21.8653 24.1453 22.3786 24.1267 22.5093 24.22L22.6493 24.276C22.7239 24.164 22.9573 24.1267 23.3493 24.164C23.7413 24.2013 24.1519 24.2853 24.5813 24.416C25.0106 24.5467 25.2253 24.7053 25.2253 24.892C25.2813 25.0227 25.3839 25.172 25.5333 25.34C25.8693 25.62 25.8693 25.8907 25.5333 26.152C25.1973 26.4133 24.6839 26.4787 23.9933 26.348C23.5079 26.348 23.1813 26.3667 23.0133 26.404C22.8453 26.4227 22.3786 26.46 21.6133 26.516C21.0719 26.4413 20.4653 26.5253 19.7933 26.768C19.1213 27.0107 18.3186 27.2533 17.3853 27.496C16.4519 27.7387 15.9106 27.8413 15.7613 27.804C15.6306 27.748 15.4066 27.552 15.0893 27.216C14.7719 26.8613 14.5759 26.6187 14.5013 26.488C14.4453 26.3573 14.4453 26.1707 14.5013 25.928C14.5759 25.6667 14.6506 25.536 14.7253 25.536C14.7999 25.6107 14.9213 25.4613 15.0893 25.088C15.2573 24.7147 15.3506 24.5 15.3693 24.444C15.3879 24.388 15.5186 24.276 15.7613 24.108C15.7613 24.0893 15.9013 23.912 16.1813 23.576C16.4799 23.24 16.7413 22.9693 16.9653 22.764C18.9066 20.8973 19.9146 19.7867 19.9893 19.432C20.0826 19.32 20.2319 19.1987 20.4373 19.068C20.6426 18.9373 20.8666 18.7507 21.1093 18.508C21.1653 18.228 21.4173 17.864 21.8653 17.416C22.1826 16.9493 22.3879 16.5667 22.4813 16.268C22.5746 15.9507 22.5839 15.764 22.5093 15.708C22.4346 15.652 22.1733 15.5587 21.7253 15.428C21.2773 15.26 20.8573 15.232 20.4653 15.344C20.0733 15.456 19.5506 15.736 18.8973 16.184C18.7666 16.2213 18.6079 16.2773 18.4213 16.352C18.0106 16.4827 17.7679 16.5387 17.6933 16.52C17.6186 16.5013 17.5533 16.464 17.4973 16.408C17.4413 16.3333 17.3666 16.2493 17.2733 16.156C17.1986 16.044 17.1333 15.96 17.0773 15.904L16.7973 14.7L17.6653 14.224C19.4013 13.104 20.7453 12.6933 21.6973 12.992Z" fill="url(#paint2_linear_1117_3081)"/>
</g>
<defs>
<filter id="filter0_d_1117_3081" x="10.4172" y="11.5439" width="19.6201" height="23.3159" filterUnits="userSpaceOnUse" color-interpolation-filters="sRGB">
<feFlood flood-opacity="0" result="BackgroundImageFix"/>
<feColorMatrix in="SourceAlpha" type="matrix" values="0 0 0 0 0 0 0 0 0 0 0 0 0 0 0 0 0 0 127 0" result="hardAlpha"/>
<feOffset dy="3"/>
<feGaussianBlur stdDeviation="2"/>
<feComposite in2="hardAlpha" operator="out"/>
<feColorMatrix type="matrix" values="0 0 0 0 0 0 0 0 0 0 0 0 0 0 0 0 0 0 0.5 0"/>
<feBlend mode="normal" in2="BackgroundImageFix" result="effect1_dropShadow_1117_3081"/>
<feBlend mode="normal" in="SourceGraphic" in2="effect1_dropShadow_1117_3081" result="shape"/>
</filter>
<radialGradient id="paint0_angular_1117_3081" cx="0" cy="0" r="1" gradientUnits="userSpaceOnUse" gradientTransform="translate(20 20) rotate(122.989) scale(33.9779)">
<stop stop-color="white" stop-opacity="0"/>
<stop offset="1" stop-color="white"/>
</radialGradient>
<linearGradient id="paint1_linear_1117_3081" x1="20" y1="0" x2="20" y2="40" gradientUnits="userSpaceOnUse">
<stop stop-color="white"/>
<stop offset="1" stop-color="white" stop-opacity="0"/>
</linearGradient>
<linearGradient id="paint2_linear_1117_3081" x1="17.5" y1="7" x2="17.5" y2="31" gradientUnits="userSpaceOnUse">
<stop stop-color="white"/>
<stop offset="1" stop-color="#CACACA"/>
</linearGradient>
</defs>
</svg>
