<svg width="40" height="40" viewBox="0 0 40 40" fill="none" xmlns="http://www.w3.org/2000/svg">
<rect width="40" height="40" rx="8" fill="url(#paint0_angular_1117_3080)" fill-opacity="0.1"/>
<rect x="0.5" y="0.5" width="39" height="39" rx="7.5" stroke="url(#paint1_linear_1117_3080)" stroke-opacity="0.1"/>
<g filter="url(#filter0_d_1117_3080)">
<path d="M21.3613 15.756H21.2493C21.1186 15.7 20.7546 15.7373 20.1573 15.868C19.5786 15.9987 19.2799 16.1013 19.2613 16.176C19.2426 16.232 19.0093 16.3253 18.5613 16.456C18.1133 16.5867 17.8426 16.652 17.7493 16.652C17.6186 16.6147 17.4599 16.372 17.2733 15.924C17.0866 15.476 17.0119 15.1867 17.0493 15.056C17.1053 14.9253 17.3573 14.72 17.8053 14.44C18.2533 14.16 18.6639 13.936 19.0373 13.768C19.4293 13.6747 20.0733 13.5813 20.9693 13.488C21.8839 13.376 22.5093 13.3293 22.8453 13.348C24.6186 13.5533 25.6453 14.3187 25.9253 15.644C26.0933 16.484 25.6919 17.3427 24.7213 18.22C24.4973 18.3693 24.2546 18.528 23.9933 18.696C23.0973 19.312 22.4626 19.6947 22.0893 19.844C21.7346 19.9933 21.4359 20.1147 21.1933 20.208C20.9693 20.2827 20.8573 20.3387 20.8573 20.376C22.3133 20.544 23.5733 21.3467 24.6373 22.784C25.0106 23.624 24.9079 24.576 24.3293 25.64C23.7693 26.6853 22.9853 27.5067 21.9773 28.104C21.1746 28.552 19.8586 28.8413 18.0293 28.972C17.3386 28.972 16.6946 28.7947 16.0973 28.44C15.4999 28.0853 15.2199 27.7307 15.2573 27.376C15.2946 26.6853 15.6959 26.396 16.4613 26.508C17.4133 26.7133 18.3746 26.7133 19.3453 26.508C20.3346 26.3027 21.0813 25.948 21.5853 25.444C22.1079 24.9213 22.3693 24.492 22.3693 24.156C22.3879 23.82 22.1733 23.5027 21.7253 23.204C21.2773 22.8867 20.7639 22.6347 20.1853 22.448C19.6066 22.2613 19.1493 22.1867 18.8133 22.224C18.4959 22.2427 18.0293 22.0933 17.4133 21.776C17.3013 21.664 17.1893 21.4493 17.0773 21.132C16.9839 20.796 16.9279 20.6093 16.9093 20.572C16.8719 20.4413 17.0586 20.236 17.4693 19.956C17.8799 19.676 18.8973 19.0973 20.5213 18.22C22.1453 17.324 23.0879 16.764 23.3493 16.54C23.5919 16.2973 23.6853 16.1107 23.6293 15.98C23.5919 15.8307 23.3493 15.7093 22.9013 15.616C21.8746 15.5227 21.3613 15.5693 21.3613 15.756Z" fill="url(#paint2_linear_1117_3080)"/>
</g>
<defs>
<filter id="filter0_d_1117_3080" x="11.2012" y="12.3203" width="18.9761" height="23.6514" filterUnits="userSpaceOnUse" color-interpolation-filters="sRGB">
<feFlood flood-opacity="0" result="BackgroundImageFix"/>
<feColorMatrix in="SourceAlpha" type="matrix" values="0 0 0 0 0 0 0 0 0 0 0 0 0 0 0 0 0 0 127 0" result="hardAlpha"/>
<feOffset dy="3"/>
<feGaussianBlur stdDeviation="2"/>
<feComposite in2="hardAlpha" operator="out"/>
<feColorMatrix type="matrix" values="0 0 0 0 0 0 0 0 0 0 0 0 0 0 0 0 0 0 0.5 0"/>
<feBlend mode="normal" in2="BackgroundImageFix" result="effect1_dropShadow_1117_3080"/>
<feBlend mode="normal" in="SourceGraphic" in2="effect1_dropShadow_1117_3080" result="shape"/>
</filter>
<radialGradient id="paint0_angular_1117_3080" cx="0" cy="0" r="1" gradientUnits="userSpaceOnUse" gradientTransform="translate(20 20) rotate(122.989) scale(33.9779)">
<stop stop-color="white" stop-opacity="0"/>
<stop offset="1" stop-color="white"/>
</radialGradient>
<linearGradient id="paint1_linear_1117_3080" x1="20" y1="0" x2="20" y2="40" gradientUnits="userSpaceOnUse">
<stop stop-color="white"/>
<stop offset="1" stop-color="white" stop-opacity="0"/>
</linearGradient>
<linearGradient id="paint2_linear_1117_3080" x1="17.5" y1="8" x2="17.5" y2="32" gradientUnits="userSpaceOnUse">
<stop stop-color="white"/>
<stop offset="1" stop-color="#CACACA"/>
</linearGradient>
</defs>
</svg>
