<svg width="40" height="40" viewBox="0 0 40 40" fill="none" xmlns="http://www.w3.org/2000/svg">
<rect width="40" height="40" rx="8" fill="url(#paint0_angular_1117_3083)" fill-opacity="0.1"/>
<rect x="0.5" y="0.5" width="39" height="39" rx="7.5" stroke="url(#paint1_linear_1117_3083)" stroke-opacity="0.1"/>
<g filter="url(#filter0_d_1117_3083)">
<path d="M19.1857 14.944C19.671 14.44 20.2964 14.0293 21.0617 13.712C21.8457 13.3947 22.6577 13.2547 23.4977 13.292C24.3377 13.3107 24.963 13.5907 25.3737 14.132C25.6537 14.748 25.6164 15.224 25.2617 15.56C25.0937 15.728 24.907 15.756 24.7017 15.644C24.2164 15.3453 23.3857 15.3733 22.2097 15.728C22.1164 15.7653 21.995 15.812 21.8457 15.868C21.6964 15.924 21.5844 15.9707 21.5097 16.008C21.4537 16.0267 21.3697 16.064 21.2577 16.12C21.1644 16.1573 21.0897 16.1947 21.0337 16.232C20.9217 16.3067 20.8284 16.4187 20.7537 16.568C20.6977 16.6053 20.651 16.6427 20.6137 16.68C20.5764 16.7547 20.5204 16.792 20.4457 16.792C20.3337 16.904 20.2777 17.0067 20.2777 17.1C20.2777 17.1 20.203 17.1933 20.0537 17.38C20.0164 17.38 19.979 17.352 19.9417 17.296C19.9417 17.3893 19.9324 17.492 19.9137 17.604C19.895 17.716 19.9324 17.8 20.0257 17.856C20.119 17.8933 20.455 17.9493 21.0337 18.024C21.631 18.0987 22.2284 18.3227 22.8257 18.696C23.535 19.1067 24.011 19.816 24.2537 20.824C24.4964 21.832 24.5524 22.7933 24.4217 23.708C24.291 24.604 24.0577 25.3133 23.7217 25.836C22.863 27.0307 21.603 27.9267 19.9417 28.524C18.299 29.1027 17.0577 29.112 16.2177 28.552C15.8817 28.3093 15.7137 28.104 15.7137 27.936C15.639 27.824 15.555 27.768 15.4617 27.768C15.3497 27.824 15.2657 27.6187 15.2097 27.152C15.1724 26.6853 15.163 26.4147 15.1817 26.34C15.275 26.1347 15.527 26.004 15.9377 25.948C16.3484 25.8733 16.5724 25.9387 16.6097 26.144C16.6657 26.4987 17.1417 26.6573 18.0377 26.62C19.5124 26.6013 20.7257 25.9667 21.6777 24.716C21.995 23.9693 22.1724 23.344 22.2097 22.84C22.2657 22.336 22.2564 22.0653 22.1817 22.028C22.1444 21.8227 22.079 21.608 21.9857 21.384C21.911 21.1413 21.7057 20.8707 21.3697 20.572C21.0337 20.2733 20.707 20.0587 20.3897 19.928C20.0724 19.872 19.643 19.8813 19.1017 19.956C18.411 20.0493 18.0284 20.0587 17.9537 19.984C17.8044 19.9467 17.543 19.7693 17.1697 19.452C16.815 19.116 16.6377 18.8827 16.6377 18.752C16.6937 18.472 17.011 17.8933 17.5897 17.016C18.1684 16.1387 18.7004 15.448 19.1857 14.944Z" fill="url(#paint2_linear_1117_3083)"/>
</g>
<defs>
<filter id="filter0_d_1117_3083" x="11.1538" y="12.2363" width="18.6399" height="24.1553" filterUnits="userSpaceOnUse" color-interpolation-filters="sRGB">
<feFlood flood-opacity="0" result="BackgroundImageFix"/>
<feColorMatrix in="SourceAlpha" type="matrix" values="0 0 0 0 0 0 0 0 0 0 0 0 0 0 0 0 0 0 127 0" result="hardAlpha"/>
<feOffset dy="3"/>
<feGaussianBlur stdDeviation="2"/>
<feComposite in2="hardAlpha" operator="out"/>
<feColorMatrix type="matrix" values="0 0 0 0 0 0 0 0 0 0 0 0 0 0 0 0 0 0 0.5 0"/>
<feBlend mode="normal" in2="BackgroundImageFix" result="effect1_dropShadow_1117_3083"/>
<feBlend mode="normal" in="SourceGraphic" in2="effect1_dropShadow_1117_3083" result="shape"/>
</filter>
<radialGradient id="paint0_angular_1117_3083" cx="0" cy="0" r="1" gradientUnits="userSpaceOnUse" gradientTransform="translate(20 20) rotate(122.989) scale(33.9779)">
<stop stop-color="white" stop-opacity="0"/>
<stop offset="1" stop-color="white"/>
</radialGradient>
<linearGradient id="paint1_linear_1117_3083" x1="20" y1="0" x2="20" y2="40" gradientUnits="userSpaceOnUse">
<stop stop-color="white"/>
<stop offset="1" stop-color="white" stop-opacity="0"/>
</linearGradient>
<linearGradient id="paint2_linear_1117_3083" x1="17.5" y1="8" x2="17.5" y2="32" gradientUnits="userSpaceOnUse">
<stop stop-color="white"/>
<stop offset="1" stop-color="#CACACA"/>
</linearGradient>
</defs>
</svg>
