<svg width="40" height="40" viewBox="0 0 40 40" fill="none" xmlns="http://www.w3.org/2000/svg">
<rect width="40" height="40" rx="8" fill="url(#paint0_angular_1191_2723)" fill-opacity="0.1"/>
<rect x="0.5" y="0.5" width="39" height="39" rx="7.5" stroke="url(#paint1_linear_1191_2723)" stroke-opacity="0.1"/>
<g filter="url(#filter0_d_1191_2723)">
<path d="M22.6742 21.272C22.6555 21.272 22.6088 21.2627 22.5342 21.244C22.4782 21.2253 22.3942 21.2067 22.2822 21.188C22.1888 21.1693 22.0582 21.1413 21.8902 21.104C21.5542 21.0107 20.6115 21.1507 19.0622 21.524C18.9875 21.5427 18.8568 21.5893 18.6702 21.664C18.4835 21.7387 18.3342 21.7853 18.2222 21.804C18.1102 21.9533 17.9235 22.0653 17.6622 22.14C17.4008 22.196 17.2048 22.364 17.0742 22.644C16.9622 22.924 16.8128 23.4653 16.6262 24.268C16.4582 25.2013 16.4208 25.7427 16.5142 25.892C16.5702 26.1347 16.7382 26.2933 17.0182 26.368C17.2982 26.4427 17.5315 26.48 17.7182 26.48C17.9048 26.4613 18.1848 26.3773 18.5582 26.228C18.9315 26.116 19.1462 26.0693 19.2022 26.088C19.5755 25.8453 19.9582 25.5933 20.3502 25.332C21.1902 24.828 21.8342 24.2493 22.2822 23.596C22.7302 22.9427 22.9075 22.3827 22.8142 21.916C22.8328 21.8227 22.7862 21.608 22.6742 21.272ZM18.1382 16.624C18.3995 16.456 18.6328 16.2413 18.8382 15.98C19.0435 15.7187 19.6408 15.2987 20.6302 14.72C21.6195 14.1413 22.5248 13.796 23.3462 13.684C23.6262 13.6467 23.7475 13.6933 23.7102 13.824C24.0462 14.216 24.3168 14.4307 24.5222 14.468C24.5408 14.468 24.6528 14.6267 24.8582 14.944C24.9142 15.224 24.6155 15.672 23.9622 16.288C23.5515 16.5867 23.2808 16.6613 23.1502 16.512C23.1502 16.4187 23.0568 16.3533 22.8702 16.316C22.6835 16.26 22.3102 16.372 21.7502 16.652C21.1902 16.9133 20.7235 17.2493 20.3502 17.66C19.9395 18.0333 19.7062 18.2947 19.6502 18.444L18.7262 19.508C18.7822 19.6013 18.9128 19.6293 19.1182 19.592C19.3235 19.536 19.4448 19.4707 19.4822 19.396C19.4822 19.3213 19.6875 19.228 20.0982 19.116C20.5275 18.9853 20.9568 18.9013 21.3862 18.864C21.5915 18.7893 21.9835 18.8173 22.5622 18.948C23.1408 19.06 23.5048 19.1533 23.6542 19.228C23.8035 19.3027 23.9808 19.4707 24.1862 19.732C24.8582 20.3667 25.1755 21.1973 25.1382 22.224C25.1382 22.8213 24.9795 23.316 24.6622 23.708C23.8408 25.108 23.2062 25.948 22.7582 26.228L22.4502 26.424C22.4128 26.6293 21.9275 27.0027 20.9942 27.544C18.4928 28.9813 16.6822 29.168 15.5622 28.104C14.8155 27.544 14.3862 26.9 14.2742 26.172C14.1435 25.7053 14.0782 25.3973 14.0782 25.248C14.0968 25.08 14.1902 24.604 14.3582 23.82C14.5262 23.0173 14.6662 22.448 14.7782 22.112C14.8902 21.7573 15.1048 21.356 15.4222 20.908C15.7768 19.9187 16.0942 19.2653 16.3742 18.948C16.7848 18.332 17.1208 17.8933 17.3822 17.632L18.1382 16.624Z" fill="url(#paint2_linear_1191_2723)"/>
</g>
<defs>
<filter id="filter0_d_1191_2723" x="10.0781" y="12.6279" width="19.116" height="24.0723" filterUnits="userSpaceOnUse" color-interpolation-filters="sRGB">
<feFlood flood-opacity="0" result="BackgroundImageFix"/>
<feColorMatrix in="SourceAlpha" type="matrix" values="0 0 0 0 0 0 0 0 0 0 0 0 0 0 0 0 0 0 127 0" result="hardAlpha"/>
<feOffset dy="3"/>
<feGaussianBlur stdDeviation="2"/>
<feComposite in2="hardAlpha" operator="out"/>
<feColorMatrix type="matrix" values="0 0 0 0 0 0 0 0 0 0 0 0 0 0 0 0 0 0 0.5 0"/>
<feBlend mode="normal" in2="BackgroundImageFix" result="effect1_dropShadow_1191_2723"/>
<feBlend mode="normal" in="SourceGraphic" in2="effect1_dropShadow_1191_2723" result="shape"/>
</filter>
<radialGradient id="paint0_angular_1191_2723" cx="0" cy="0" r="1" gradientUnits="userSpaceOnUse" gradientTransform="translate(20 20) rotate(122.989) scale(33.9779)">
<stop stop-color="white" stop-opacity="0"/>
<stop offset="1" stop-color="white"/>
</radialGradient>
<linearGradient id="paint1_linear_1191_2723" x1="20" y1="0" x2="20" y2="40" gradientUnits="userSpaceOnUse">
<stop stop-color="white"/>
<stop offset="1" stop-color="white" stop-opacity="0"/>
</linearGradient>
<linearGradient id="paint2_linear_1191_2723" x1="17" y1="8" x2="17" y2="32" gradientUnits="userSpaceOnUse">
<stop stop-color="white"/>
<stop offset="1" stop-color="#CACACA"/>
</linearGradient>
</defs>
</svg>
