<svg width="40" height="40" viewBox="0 0 40 40" fill="none" xmlns="http://www.w3.org/2000/svg">
<rect width="40" height="40" rx="8" fill="#0084FF"/>
<rect x="0.5" y="0.5" width="39" height="39" rx="7.5" stroke="url(#paint0_linear_1108_2657)" stroke-opacity="0.45"/>
<g filter="url(#filter0_d_1108_2657)">
<path fill-rule="evenodd" clip-rule="evenodd" d="M12.7593 11H28.2407C28.7073 11 29.1548 11.1853 29.4847 11.5153C29.8146 11.8452 30 12.2927 30 12.7593V24.0185C30 24.4851 29.8146 24.9326 29.4847 25.2625C29.1548 25.5924 28.7073 25.7778 28.2407 25.7778H16.6296L13.9081 28.1633L13.8914 28.1774C13.5762 28.4445 13.1768 28.5915 12.7637 28.5926C12.5055 28.5919 12.2507 28.5349 12.0169 28.4254C11.7123 28.2858 11.4544 28.0614 11.2741 27.779C11.0938 27.4967 10.9986 27.1684 11 26.8333V12.7593C11 12.2927 11.1854 11.8452 11.5153 11.5153C11.8452 11.1853 12.2927 11 12.7593 11ZM16.4977 23.6667H27.8889V13.1111H13.1111V26.054L15.3489 24.0933L15.3656 24.0792C15.6827 23.8127 16.0835 23.6666 16.4977 23.6667ZM16.4963 17.263C16.2201 17.263 15.9963 17.4868 15.9963 17.763V19.0148C15.9963 19.291 16.2202 19.5148 16.4963 19.5148H17.7481C18.0243 19.5148 18.2481 19.2909 18.2481 19.0148V17.763C18.2481 17.4868 18.0243 17.263 17.7481 17.263H16.4963ZM19.3741 17.763C19.3741 17.4868 19.5979 17.263 19.8741 17.263H21.1259C21.4021 17.263 21.6259 17.4868 21.6259 17.763V19.0148C21.6259 19.2909 21.4021 19.5148 21.1259 19.5148H19.8741C19.5979 19.5148 19.3741 19.291 19.3741 19.0148V17.763ZM23.2518 17.263C22.9757 17.263 22.7518 17.4868 22.7518 17.763V19.0148C22.7518 19.291 22.9757 19.5148 23.2518 19.5148H24.5037C24.7798 19.5148 25.0037 19.2909 25.0037 19.0148V17.763C25.0037 17.4868 24.7798 17.263 24.5037 17.263H23.2518Z" fill="white"/>
</g>
<defs>
<filter id="filter0_d_1108_2657" x="7" y="11" width="27" height="25.5928" filterUnits="userSpaceOnUse" color-interpolation-filters="sRGB">
<feFlood flood-opacity="0" result="BackgroundImageFix"/>
<feColorMatrix in="SourceAlpha" type="matrix" values="0 0 0 0 0 0 0 0 0 0 0 0 0 0 0 0 0 0 127 0" result="hardAlpha"/>
<feOffset dy="4"/>
<feGaussianBlur stdDeviation="2"/>
<feComposite in2="hardAlpha" operator="out"/>
<feColorMatrix type="matrix" values="0 0 0 0 0 0 0 0 0 0 0 0 0 0 0 0 0 0 0.25 0"/>
<feBlend mode="normal" in2="BackgroundImageFix" result="effect1_dropShadow_1108_2657"/>
<feBlend mode="normal" in="SourceGraphic" in2="effect1_dropShadow_1108_2657" result="shape"/>
</filter>
<linearGradient id="paint0_linear_1108_2657" x1="20" y1="0" x2="20" y2="40" gradientUnits="userSpaceOnUse">
<stop stop-color="white"/>
<stop offset="1" stop-color="white" stop-opacity="0"/>
</linearGradient>
</defs>
</svg>
