<svg width="40" height="40" viewBox="0 0 40 40" fill="none" xmlns="http://www.w3.org/2000/svg">
<rect width="40" height="40" rx="8" fill="#5889F6"/>
<rect x="0.5" y="0.5" width="39" height="39" rx="7.5" stroke="url(#paint0_linear_1108_2645)" stroke-opacity="0.52"/>
<g filter="url(#filter0_d_1108_2645)">
<path fill-rule="evenodd" clip-rule="evenodd" d="M13.3285 28.8811L23.6137 24.9252C24.2196 24.69 24.6971 24.2196 24.9252 23.6137L28.8811 13.3285C29.4156 11.9457 28.0543 10.5844 26.6715 11.1189L16.3863 15.0748C15.7804 15.31 15.31 15.7804 15.0748 16.3863L11.1189 26.6715C10.5844 28.0543 11.9457 29.4156 13.3285 28.8811ZM21.6128 18.3872C22.0405 18.8149 22.2809 19.3951 22.2809 20C22.2809 20.6049 22.0405 21.1851 21.6128 21.6128C21.1851 22.0405 20.6049 22.2809 20 22.2809C19.3951 22.2809 18.8149 22.0405 18.3872 21.6128C17.9595 21.1851 17.7191 20.6049 17.7191 20C17.7191 19.3951 17.9595 18.8149 18.3872 18.3872C18.8149 17.9595 19.3951 17.7191 20 17.7191C20.6049 17.7191 21.1851 17.9595 21.6128 18.3872Z" fill="white"/>
</g>
<defs>
<filter id="filter0_d_1108_2645" x="7" y="11" width="26" height="26" filterUnits="userSpaceOnUse" color-interpolation-filters="sRGB">
<feFlood flood-opacity="0" result="BackgroundImageFix"/>
<feColorMatrix in="SourceAlpha" type="matrix" values="0 0 0 0 0 0 0 0 0 0 0 0 0 0 0 0 0 0 127 0" result="hardAlpha"/>
<feOffset dy="4"/>
<feGaussianBlur stdDeviation="2"/>
<feComposite in2="hardAlpha" operator="out"/>
<feColorMatrix type="matrix" values="0 0 0 0 0 0 0 0 0 0 0 0 0 0 0 0 0 0 0.15 0"/>
<feBlend mode="normal" in2="BackgroundImageFix" result="effect1_dropShadow_1108_2645"/>
<feBlend mode="normal" in="SourceGraphic" in2="effect1_dropShadow_1108_2645" result="shape"/>
</filter>
<linearGradient id="paint0_linear_1108_2645" x1="20" y1="0" x2="20" y2="40" gradientUnits="userSpaceOnUse">
<stop stop-color="white"/>
<stop offset="1" stop-color="white" stop-opacity="0"/>
</linearGradient>
</defs>
</svg>
