<svg width="40" height="40" viewBox="0 0 40 40" fill="none" xmlns="http://www.w3.org/2000/svg">
<rect width="40" height="40" rx="8" fill="#DDAE34"/>
<rect x="0.5" y="0.5" width="39" height="39" rx="7.5" stroke="url(#paint0_linear_1108_2688)" stroke-opacity="0.25"/>
<g filter="url(#filter0_d_1108_2688)">
<path d="M29 24.663C28.9996 25.9085 28.5789 27.1165 27.8075 28.0871C27.0362 29.0576 25.9604 29.7325 24.7583 30L24.1841 28.2568C24.7099 28.1692 25.21 27.9646 25.6482 27.6578C26.0865 27.351 26.452 26.9497 26.7185 26.4827H24.5C24.0226 26.4827 23.5648 26.2908 23.2272 25.9492C22.8896 25.6076 22.7 25.1443 22.7 24.6612V21.0182C22.7 20.5351 22.8896 20.0718 23.2272 19.7302C23.5648 19.3886 24.0226 19.1967 24.5 19.1967H27.1442C26.9246 17.4362 26.0776 15.8172 24.7623 14.6436C23.4469 13.47 21.7536 12.8225 20 12.8225C18.2464 12.8225 16.5531 13.47 15.2377 14.6436C13.9224 15.8172 13.0754 17.4362 12.8558 19.1967H15.5C15.9774 19.1967 16.4352 19.3886 16.7728 19.7302C17.1104 20.0718 17.3 20.5351 17.3 21.0182V24.6612C17.3 25.1443 17.1104 25.6076 16.7728 25.9492C16.4352 26.2908 15.9774 26.4827 15.5 26.4827H12.8C12.3226 26.4827 11.8648 26.2908 11.5272 25.9492C11.1896 25.6076 11 25.1443 11 24.6612V20.1075C11 15.0774 15.0293 11 20 11C24.9707 11 29 15.0774 29 20.1075V24.663ZM27.2 24.6612V21.0182H24.5V24.6612H27.2ZM12.8 21.0182V24.6612H15.5V21.0182H12.8Z" fill="white"/>
</g>
<defs>
<filter id="filter0_d_1108_2688" x="7" y="11" width="26" height="27" filterUnits="userSpaceOnUse" color-interpolation-filters="sRGB">
<feFlood flood-opacity="0" result="BackgroundImageFix"/>
<feColorMatrix in="SourceAlpha" type="matrix" values="0 0 0 0 0 0 0 0 0 0 0 0 0 0 0 0 0 0 127 0" result="hardAlpha"/>
<feOffset dy="4"/>
<feGaussianBlur stdDeviation="2"/>
<feComposite in2="hardAlpha" operator="out"/>
<feColorMatrix type="matrix" values="0 0 0 0 0 0 0 0 0 0 0 0 0 0 0 0 0 0 0.25 0"/>
<feBlend mode="normal" in2="BackgroundImageFix" result="effect1_dropShadow_1108_2688"/>
<feBlend mode="normal" in="SourceGraphic" in2="effect1_dropShadow_1108_2688" result="shape"/>
</filter>
<linearGradient id="paint0_linear_1108_2688" x1="20" y1="0" x2="20" y2="40" gradientUnits="userSpaceOnUse">
<stop stop-color="white"/>
<stop offset="1" stop-color="white" stop-opacity="0"/>
</linearGradient>
</defs>
</svg>
