<svg width="40" height="40" viewBox="0 0 40 40" fill="none" xmlns="http://www.w3.org/2000/svg">
<rect width="40" height="40" rx="8" fill="#E4226B"/>
<rect x="0.5" y="0.5" width="39" height="39" rx="7.5" stroke="url(#paint0_linear_1108_2674)" stroke-opacity="0.4"/>
<g filter="url(#filter0_d_1108_2674)">
<path d="M23.6842 27.3611C22.4329 27.3622 21.2053 27.0182 20.1359 26.3666C19.0666 25.715 18.1965 24.7809 17.6211 23.6667H23.6842L24.7368 21.5556H16.9263C16.8737 21.2072 16.8421 20.8589 16.8421 20.5C16.8421 20.1411 16.8737 19.7928 16.9263 19.4444H23.6842L24.7368 17.3333H17.6211C18.1975 16.2199 19.0678 15.2866 20.137 14.6351C21.2061 13.9837 22.4331 13.639 23.6842 13.6389C25.3789 13.6389 26.9368 14.2617 28.1368 15.2961L30 13.4278C28.2667 11.8629 26.0165 10.9979 23.6842 11C19.5579 11 16.0632 13.6494 14.7579 17.3333H11.0526L10 19.4444H14.2737C14.1884 20.1456 14.1884 20.8545 14.2737 21.5556H11.0526L10 23.6667H14.7579C16.0632 27.3506 19.5579 30 23.6842 30C26.1158 30 28.3263 29.0817 30 27.5722L28.1263 25.7039C26.9368 26.7383 25.3895 27.3611 23.6842 27.3611Z" fill="white"/>
</g>
<defs>
<filter id="filter0_d_1108_2674" x="6" y="11" width="28" height="27" filterUnits="userSpaceOnUse" color-interpolation-filters="sRGB">
<feFlood flood-opacity="0" result="BackgroundImageFix"/>
<feColorMatrix in="SourceAlpha" type="matrix" values="0 0 0 0 0 0 0 0 0 0 0 0 0 0 0 0 0 0 127 0" result="hardAlpha"/>
<feOffset dy="4"/>
<feGaussianBlur stdDeviation="2"/>
<feComposite in2="hardAlpha" operator="out"/>
<feColorMatrix type="matrix" values="0 0 0 0 0 0 0 0 0 0 0 0 0 0 0 0 0 0 0.25 0"/>
<feBlend mode="normal" in2="BackgroundImageFix" result="effect1_dropShadow_1108_2674"/>
<feBlend mode="normal" in="SourceGraphic" in2="effect1_dropShadow_1108_2674" result="shape"/>
</filter>
<linearGradient id="paint0_linear_1108_2674" x1="20" y1="0" x2="20" y2="40" gradientUnits="userSpaceOnUse">
<stop stop-color="white"/>
<stop offset="1" stop-color="white" stop-opacity="0"/>
</linearGradient>
</defs>
</svg>
